<svg width="150" height="150" viewBox="0 0 150 150" fill="none" xmlns="http://www.w3.org/2000/svg">
<g clip-path="url(#clip0_503_184)">
<g clip-path="url(#clip1_503_184)">
<path d="M92.8571 150L42.8571 138.894V147.152H0V84.5023H56.7857L101.071 97.6018C105 98.7409 108.185 100.734 110.625 103.582C113.065 106.43 114.286 109.562 114.286 112.98H128.571C134.524 112.98 139.583 114.546 143.75 117.678C147.917 120.811 150 124.94 150 130.066V135.761L92.8571 150ZM14.2857 135.761H28.5714V95.8932H14.2857V135.761ZM92.5 138.04L135 127.503C134.643 126.459 133.839 125.676 132.589 125.154C131.339 124.631 130 124.37 128.571 124.37H94.2857C90.5952 124.37 87.2619 124.181 84.2857 123.801C81.3095 123.421 78.0952 122.757 74.6429 121.807L62.3214 118.39L66.4286 107.569L80.7143 111.271C82.8571 111.84 85.3571 112.268 88.2143 112.552C91.0714 112.837 95 112.98 100 112.98C100 111.935 99.6131 110.939 98.8393 109.989C98.0655 109.04 97.1429 108.423 96.0714 108.138L54.2857 95.8932H42.8571V127.218L92.5 138.04Z" fill="#F2731B"/>
<path d="M97.0425 31.0661V23.2996H123.607V31.0661H97.0425ZM93.7219 85.4318C91.8956 85.4318 90.3322 84.6714 89.0316 83.1504C87.731 81.6295 87.0807 79.8011 87.0807 77.6653V7.76653C87.0807 5.63073 87.731 3.80236 89.0316 2.28142C90.3322 0.760473 91.8956 0 93.7219 0H126.928C128.754 0 130.318 0.760473 131.618 2.28142C132.919 3.80236 133.569 5.63073 133.569 7.76653V77.6653C133.569 79.8011 132.919 81.6295 131.618 83.1504C130.318 84.6714 128.754 85.4318 126.928 85.4318H93.7219ZM93.7219 73.782V77.6653H126.928V73.782H93.7219ZM93.7219 66.0155H126.928V19.4163H93.7219V66.0155ZM93.7219 11.6498H126.928V7.76653H93.7219V11.6498Z" fill="#F2731B"/>
</g>
</g>
<defs>
<clipPath id="clip0_503_184">
<rect width="150" height="150" fill="white"/>
</clipPath>
<clipPath id="clip1_503_184">
<rect width="150" height="150" fill="white"/>
</clipPath>
</defs>
</svg>
