<svg width="150" height="150" viewBox="0 0 150 150" fill="none" xmlns="http://www.w3.org/2000/svg">
<g clip-path="url(#clip0_503_189)">
<mask id="mask0_503_189" style="mask-type:alpha" maskUnits="userSpaceOnUse" x="0" y="0" width="150" height="150">
<rect width="150" height="150" fill="#D9D9D9"/>
</mask>
<g mask="url(#mask0_503_189)">
<path d="M68.2813 87.8125L103.75 52.5L94.8438 43.5938L68.2813 70.1563L55 56.875L46.25 65.625L68.2813 87.8125ZM6.25 131.25V118.75H143.75V131.25H6.25ZM25 112.5C21.5625 112.5 18.6198 111.276 16.1719 108.828C13.724 106.38 12.5 103.438 12.5 100V31.25C12.5 27.8125 13.724 24.8698 16.1719 22.4219C18.6198 19.974 21.5625 18.75 25 18.75H125C128.438 18.75 131.38 19.974 133.828 22.4219C136.276 24.8698 137.5 27.8125 137.5 31.25V100C137.5 103.438 136.276 106.38 133.828 108.828C131.38 111.276 128.438 112.5 125 112.5H25ZM25 100H125V31.25H25V100Z" fill="#1689E2"/>
</g>
</g>
<defs>
<clipPath id="clip0_503_189">
<rect width="150" height="150" fill="white"/>
</clipPath>
</defs>
</svg>
