<svg width="150" height="150" viewBox="0 0 150 150" fill="none" xmlns="http://www.w3.org/2000/svg">
<g clip-path="url(#clip0_503_185)">
<mask id="mask0_503_185" style="mask-type:alpha" maskUnits="userSpaceOnUse" x="0" y="0" width="150" height="150">
<rect width="150" height="150" fill="#D9D9D9"/>
</mask>
<g mask="url(#mask0_503_185)">
<path d="M68.4375 114.688L46.25 92.5L55.3125 83.4375L68.4375 96.5625L94.6875 70.3125L103.75 79.375L68.4375 114.688ZM31.25 137.5C27.8125 137.5 24.8698 136.276 22.4219 133.828C19.974 131.38 18.75 128.438 18.75 125V37.5C18.75 34.0625 19.974 31.1198 22.4219 28.6719C24.8698 26.224 27.8125 25 31.25 25H37.5V12.5H50V25H100V12.5H112.5V25H118.75C122.188 25 125.13 26.224 127.578 28.6719C130.026 31.1198 131.25 34.0625 131.25 37.5V125C131.25 128.438 130.026 131.38 127.578 133.828C125.13 136.276 122.188 137.5 118.75 137.5H31.25ZM31.25 125H118.75V62.5H31.25V125ZM31.25 50H118.75V37.5H31.25V50Z" fill="#27A748"/>
</g>
</g>
<defs>
<clipPath id="clip0_503_185">
<rect width="150" height="150" fill="white"/>
</clipPath>
</defs>
</svg>
