<svg width="1440" height="800" viewBox="0 0 1440 800" fill="none" xmlns="http://www.w3.org/2000/svg">
<rect width="1440" height="800" fill="#D9F6CF"/>
<path d="M1220 532.398H720V532.648H1220V532.398Z" fill="#EBEBEB"/>
<path d="M1169.9 548.494H1136.78V548.744H1169.9V548.494Z" fill="#EBEBEB"/>
<path d="M1051.22 551.208H1042.53V551.458H1051.22V551.208Z" fill="#EBEBEB"/>
<path d="M1135.78 539.208H1116.59V539.458H1135.78V539.208Z" fill="#EBEBEB"/>
<path d="M815.652 540.888H772.459V541.138H815.652V540.888Z" fill="#EBEBEB"/>
<path d="M830.889 540.888H824.556V541.138H830.889V540.888Z" fill="#EBEBEB"/>
<path d="M945.147 545.111H851.471V545.361H945.147V545.111Z" fill="#EBEBEB"/>
<path d="M957.014 487.8H763.915C760.768 487.8 758.207 485.239 758.207 482.092V210.66C758.207 207.513 760.768 204.952 763.915 204.952H957.014C960.16 204.952 962.721 207.513 962.721 210.66V482.092C962.721 485.239 960.16 487.8 957.014 487.8ZM763.915 205.203C760.905 205.203 758.457 207.651 758.457 210.661V482.093C758.457 485.103 760.905 487.551 763.915 487.551H957.014C960.023 487.551 962.471 485.103 962.471 482.093V210.66C962.471 207.651 960.023 205.202 957.014 205.202L763.915 205.203Z" fill="#EBEBEB"/>
<path d="M1173.31 487.8H980.212C977.065 487.8 974.505 485.239 974.505 482.092V210.66C974.505 207.513 977.066 204.952 980.212 204.952H1173.31C1176.46 204.952 1179.02 207.513 1179.02 210.66V482.092C1179.02 485.239 1176.46 487.8 1173.31 487.8ZM980.212 205.203C977.203 205.203 974.755 207.651 974.755 210.661V482.093C974.755 485.103 977.203 487.551 980.212 487.551H1173.31C1176.32 487.551 1178.77 485.103 1178.77 482.093V210.66C1178.77 207.651 1176.32 205.202 1173.31 205.202L980.212 205.203Z" fill="#EBEBEB"/>
<path d="M1165.42 267.176H923.139V500.715H1165.42V267.176Z" fill="#E0E0E0"/>
<path d="M1165.42 271.417H927.027V496.642H1165.42V271.417Z" fill="#F5F5F5"/>
<path d="M928.786 442.095V374.352H935.824V365.404L951.661 357.997V348.838H954.3V374.352H956.939V442.095H960.458V406.904H968.376V388.428H971.016V442.095H977.174V421.86H981.573V416.581H991.251V398.106H996.53V385.789H1002.69V367.314H1005.33V385.789H1011.49V398.106H1016.76V416.581H1026.44V421.86H1030.84V442.095H1036.12V416.581H1045.8V360.275H1048.44V354.117H1069.55V360.275H1073.95V400.745H1091.55V405.144H1097.7V407.784H1091.55V423.62H1110.02V370.833H1113.54V360.275H1122.34V319.805H1124.98V360.275H1131.14V370.833H1165.42V496.642H927.027V442.095H928.786Z" fill="#E6E6E6"/>
<path d="M1147.1 373.591H1144.61V376.084H1147.1V373.591Z" fill="#F0F0F0"/>
<path d="M1147.1 377.77H1144.61V380.263H1147.1V377.77Z" fill="#F0F0F0"/>
<path d="M1147.1 394.486H1144.61V396.979H1147.1V394.486Z" fill="#F0F0F0"/>
<path d="M1147.1 398.665H1144.61V401.158H1147.1V398.665Z" fill="#F0F0F0"/>
<path d="M1147.1 402.844H1144.61V405.337H1147.1V402.844Z" fill="#F0F0F0"/>
<path d="M1147.1 415.381H1144.61V417.874H1147.1V415.381Z" fill="#F0F0F0"/>
<path d="M1147.1 419.56H1144.61V422.053H1147.1V419.56Z" fill="#F0F0F0"/>
<path d="M1143.14 390.307H1140.65V392.8H1143.14V390.307Z" fill="#F0F0F0"/>
<path d="M1143.14 394.486H1140.65V396.979H1143.14V394.486Z" fill="#F0F0F0"/>
<path d="M1143.14 398.665H1140.65V401.158H1143.14V398.665Z" fill="#F0F0F0"/>
<path d="M1143.14 402.844H1140.65V405.337H1143.14V402.844Z" fill="#F0F0F0"/>
<path d="M1143.14 407.023H1140.65V409.516H1143.14V407.023Z" fill="#F0F0F0"/>
<path d="M1143.14 415.381H1140.65V417.874H1143.14V415.381Z" fill="#F0F0F0"/>
<path d="M1143.14 419.56H1140.65V422.053H1143.14V419.56Z" fill="#F0F0F0"/>
<path d="M1139.18 373.591H1136.69V376.084H1139.18V373.591Z" fill="#F0F0F0"/>
<path d="M1139.18 377.77H1136.69V380.263H1139.18V377.77Z" fill="#F0F0F0"/>
<path d="M1139.18 381.949H1136.69V384.442H1139.18V381.949Z" fill="#F0F0F0"/>
<path d="M1139.18 386.128H1136.69V388.621H1139.18V386.128Z" fill="#F0F0F0"/>
<path d="M1139.18 390.307H1136.69V392.8H1139.18V390.307Z" fill="#F0F0F0"/>
<path d="M1139.18 394.486H1136.69V396.979H1139.18V394.486Z" fill="#F0F0F0"/>
<path d="M1139.18 398.665H1136.69V401.158H1139.18V398.665Z" fill="#F0F0F0"/>
<path d="M1139.18 402.844H1136.69V405.337H1139.18V402.844Z" fill="#F0F0F0"/>
<path d="M1139.18 407.023H1136.69V409.516H1139.18V407.023Z" fill="#F0F0F0"/>
<path d="M1139.18 411.202H1136.69V413.695H1139.18V411.202Z" fill="#F0F0F0"/>
<path d="M1139.18 419.56H1136.69V422.053H1139.18V419.56Z" fill="#F0F0F0"/>
<path d="M1135.22 373.591H1132.73V376.084H1135.22V373.591Z" fill="#F0F0F0"/>
<path d="M1135.22 377.77H1132.73V380.263H1135.22V377.77Z" fill="#F0F0F0"/>
<path d="M1135.22 381.949H1132.73V384.442H1135.22V381.949Z" fill="#F0F0F0"/>
<path d="M1135.22 386.128H1132.73V388.621H1135.22V386.128Z" fill="#F0F0F0"/>
<path d="M1135.22 390.307H1132.73V392.8H1135.22V390.307Z" fill="#F0F0F0"/>
<path d="M1135.22 394.486H1132.73V396.979H1135.22V394.486Z" fill="#F0F0F0"/>
<path d="M1135.22 398.665H1132.73V401.158H1135.22V398.665Z" fill="#F0F0F0"/>
<path d="M1135.22 436.276H1132.73V438.769H1135.22V436.276Z" fill="#F0F0F0"/>
<path d="M1131.26 373.591H1128.77V376.084H1131.26V373.591Z" fill="#F0F0F0"/>
<path d="M1131.26 377.77H1128.77V380.263H1131.26V377.77Z" fill="#F0F0F0"/>
<path d="M1131.26 381.949H1128.77V384.442H1131.26V381.949Z" fill="#F0F0F0"/>
<path d="M1131.26 386.128H1128.77V388.621H1131.26V386.128Z" fill="#F0F0F0"/>
<path d="M1131.26 390.307H1128.77V392.8H1131.26V390.307Z" fill="#F0F0F0"/>
<path d="M1131.26 394.486H1128.77V396.979H1131.26V394.486Z" fill="#F0F0F0"/>
<path d="M1131.26 398.665H1128.77V401.158H1131.26V398.665Z" fill="#F0F0F0"/>
<path d="M1131.26 402.844H1128.77V405.337H1131.26V402.844Z" fill="#F0F0F0"/>
<path d="M1131.26 427.918H1128.77V430.411H1131.26V427.918Z" fill="#F0F0F0"/>
<path d="M1131.26 432.097H1128.77V434.59H1131.26V432.097Z" fill="#F0F0F0"/>
<path d="M1131.26 436.276H1128.77V438.769H1131.26V436.276Z" fill="#F0F0F0"/>
<path d="M1131.26 440.455H1128.77V442.948H1131.26V440.455Z" fill="#F0F0F0"/>
<path d="M1131.26 457.171H1128.77V459.664H1131.26V457.171Z" fill="#F0F0F0"/>
<path d="M1127.31 373.591H1124.81V376.084H1127.31V373.591Z" fill="#F0F0F0"/>
<path d="M1127.31 377.77H1124.81V380.263H1127.31V377.77Z" fill="#F0F0F0"/>
<path d="M1127.31 381.949H1124.81V384.442H1127.31V381.949Z" fill="#F0F0F0"/>
<path d="M1127.31 386.128H1124.81V388.621H1127.31V386.128Z" fill="#F0F0F0"/>
<path d="M1127.31 390.307H1124.81V392.8H1127.31V390.307Z" fill="#F0F0F0"/>
<path d="M1127.31 394.486H1124.81V396.979H1127.31V394.486Z" fill="#F0F0F0"/>
<path d="M1127.31 398.665H1124.81V401.158H1127.31V398.665Z" fill="#F0F0F0"/>
<path d="M1127.31 402.844H1124.81V405.337H1127.31V402.844Z" fill="#F0F0F0"/>
<path d="M1127.31 407.023H1124.81V409.516H1127.31V407.023Z" fill="#F0F0F0"/>
<path d="M1127.31 411.202H1124.81V413.695H1127.31V411.202Z" fill="#F0F0F0"/>
<path d="M1127.31 423.739H1124.81V426.232H1127.31V423.739Z" fill="#F0F0F0"/>
<path d="M1127.31 427.918H1124.81V430.411H1127.31V427.918Z" fill="#F0F0F0"/>
<path d="M1127.31 432.097H1124.81V434.59H1127.31V432.097Z" fill="#F0F0F0"/>
<path d="M1127.31 436.276H1124.81V438.769H1127.31V436.276Z" fill="#F0F0F0"/>
<path d="M1127.31 440.455H1124.81V442.948H1127.31V440.455Z" fill="#F0F0F0"/>
<path d="M1127.31 457.171H1124.81V459.664H1127.31V457.171Z" fill="#F0F0F0"/>
<path d="M1123.35 373.591H1120.85V376.084H1123.35V373.591Z" fill="#F0F0F0"/>
<path d="M1123.35 377.77H1120.85V380.263H1123.35V377.77Z" fill="#F0F0F0"/>
<path d="M1123.35 381.949H1120.85V384.442H1123.35V381.949Z" fill="#F0F0F0"/>
<path d="M1123.35 386.128H1120.85V388.621H1123.35V386.128Z" fill="#F0F0F0"/>
<path d="M1123.35 390.307H1120.85V392.8H1123.35V390.307Z" fill="#F0F0F0"/>
<path d="M1123.35 394.486H1120.85V396.979H1123.35V394.486Z" fill="#F0F0F0"/>
<path d="M1123.35 398.665H1120.85V401.158H1123.35V398.665Z" fill="#F0F0F0"/>
<path d="M1123.35 402.844H1120.85V405.337H1123.35V402.844Z" fill="#F0F0F0"/>
<path d="M1123.35 407.023H1120.85V409.516H1123.35V407.023Z" fill="#F0F0F0"/>
<path d="M1123.35 411.202H1120.85V413.695H1123.35V411.202Z" fill="#F0F0F0"/>
<path d="M1123.35 415.381H1120.85V417.874H1123.35V415.381Z" fill="#F0F0F0"/>
<path d="M1123.35 419.56H1120.85V422.053H1123.35V419.56Z" fill="#F0F0F0"/>
<path d="M1123.35 423.739H1120.85V426.232H1123.35V423.739Z" fill="#F0F0F0"/>
<path d="M1123.35 427.918H1120.85V430.411H1123.35V427.918Z" fill="#F0F0F0"/>
<path d="M1123.35 432.097H1120.85V434.59H1123.35V432.097Z" fill="#F0F0F0"/>
<path d="M1123.35 436.276H1120.85V438.769H1123.35V436.276Z" fill="#F0F0F0"/>
<path d="M1123.35 440.455H1120.85V442.948H1123.35V440.455Z" fill="#F0F0F0"/>
<path d="M1123.35 444.634H1120.85V447.127H1123.35V444.634Z" fill="#F0F0F0"/>
<path d="M1119.39 373.591H1116.89V376.084H1119.39V373.591Z" fill="#F0F0F0"/>
<path d="M1119.39 377.77H1116.89V380.263H1119.39V377.77Z" fill="#F0F0F0"/>
<path d="M1119.39 381.949H1116.89V384.442H1119.39V381.949Z" fill="#F0F0F0"/>
<path d="M1119.39 386.128H1116.89V388.621H1119.39V386.128Z" fill="#F0F0F0"/>
<path d="M1119.39 390.307H1116.89V392.8H1119.39V390.307Z" fill="#F0F0F0"/>
<path d="M1119.39 394.486H1116.89V396.979H1119.39V394.486Z" fill="#F0F0F0"/>
<path d="M1119.39 398.665H1116.89V401.158H1119.39V398.665Z" fill="#F0F0F0"/>
<path d="M1119.39 402.844H1116.89V405.337H1119.39V402.844Z" fill="#F0F0F0"/>
<path d="M1119.39 407.023H1116.89V409.516H1119.39V407.023Z" fill="#F0F0F0"/>
<path d="M1119.39 411.202H1116.89V413.695H1119.39V411.202Z" fill="#F0F0F0"/>
<path d="M1119.39 423.739H1116.89V426.232H1119.39V423.739Z" fill="#F0F0F0"/>
<path d="M1119.39 427.918H1116.89V430.411H1119.39V427.918Z" fill="#F0F0F0"/>
<path d="M1119.39 432.097H1116.89V434.59H1119.39V432.097Z" fill="#F0F0F0"/>
<path d="M1119.39 436.276H1116.89V438.769H1119.39V436.276Z" fill="#F0F0F0"/>
<path d="M1115.43 373.591H1112.93V376.084H1115.43V373.591Z" fill="#F0F0F0"/>
<path d="M1115.43 377.77H1112.93V380.263H1115.43V377.77Z" fill="#F0F0F0"/>
<path d="M1115.43 381.949H1112.93V384.442H1115.43V381.949Z" fill="#F0F0F0"/>
<path d="M1115.43 386.128H1112.93V388.621H1115.43V386.128Z" fill="#F0F0F0"/>
<path d="M1115.43 390.307H1112.93V392.8H1115.43V390.307Z" fill="#F0F0F0"/>
<path d="M1115.43 394.486H1112.93V396.979H1115.43V394.486Z" fill="#F0F0F0"/>
<path d="M1115.43 398.665H1112.93V401.158H1115.43V398.665Z" fill="#F0F0F0"/>
<path d="M1115.43 402.844H1112.93V405.337H1115.43V402.844Z" fill="#F0F0F0"/>
<path d="M1115.43 407.023H1112.93V409.516H1115.43V407.023Z" fill="#F0F0F0"/>
<path d="M1115.43 411.202H1112.93V413.695H1115.43V411.202Z" fill="#F0F0F0"/>
<path d="M1115.43 423.739H1112.93V426.232H1115.43V423.739Z" fill="#F0F0F0"/>
<path d="M1115.43 427.918H1112.93V430.411H1115.43V427.918Z" fill="#F0F0F0"/>
<path d="M1115.43 432.097H1112.93V434.59H1115.43V432.097Z" fill="#F0F0F0"/>
<path d="M1070.85 362.74H1068.36V365.233H1070.85V362.74Z" fill="#F0F0F0"/>
<path d="M1070.85 366.919H1068.36V369.412H1070.85V366.919Z" fill="#F0F0F0"/>
<path d="M1070.85 371.098H1068.36V373.591H1070.85V371.098Z" fill="#F0F0F0"/>
<path d="M1070.85 375.277H1068.36V377.77H1070.85V375.277Z" fill="#F0F0F0"/>
<path d="M1070.85 379.456H1068.36V381.949H1070.85V379.456Z" fill="#F0F0F0"/>
<path d="M1070.85 383.635H1068.36V386.128H1070.85V383.635Z" fill="#F0F0F0"/>
<path d="M1070.85 387.814H1068.36V390.307H1070.85V387.814Z" fill="#F0F0F0"/>
<path d="M1070.85 391.993H1068.36V394.486H1070.85V391.993Z" fill="#F0F0F0"/>
<path d="M1070.85 404.53H1068.36V407.023H1070.85V404.53Z" fill="#F0F0F0"/>
<path d="M1070.85 408.709H1068.36V411.202H1070.85V408.709Z" fill="#F0F0F0"/>
<path d="M1066.89 362.74H1064.4V365.233H1066.89V362.74Z" fill="#F0F0F0"/>
<path d="M1066.89 366.919H1064.4V369.412H1066.89V366.919Z" fill="#F0F0F0"/>
<path d="M1066.89 371.098H1064.4V373.591H1066.89V371.098Z" fill="#F0F0F0"/>
<path d="M1066.89 375.277H1064.4V377.77H1066.89V375.277Z" fill="#F0F0F0"/>
<path d="M1066.89 379.456H1064.4V381.949H1066.89V379.456Z" fill="#F0F0F0"/>
<path d="M1066.89 383.635H1064.4V386.128H1066.89V383.635Z" fill="#F0F0F0"/>
<path d="M1066.89 387.814H1064.4V390.307H1066.89V387.814Z" fill="#F0F0F0"/>
<path d="M1066.89 391.993H1064.4V394.486H1066.89V391.993Z" fill="#F0F0F0"/>
<path d="M1066.89 408.709H1064.4V411.202H1066.89V408.709Z" fill="#F0F0F0"/>
<path d="M1062.93 362.74H1060.44V365.233H1062.93V362.74Z" fill="#F0F0F0"/>
<path d="M1062.93 366.919H1060.44V369.412H1062.93V366.919Z" fill="#F0F0F0"/>
<path d="M1062.93 371.098H1060.44V373.591H1062.93V371.098Z" fill="#F0F0F0"/>
<path d="M1062.93 375.277H1060.44V377.77H1062.93V375.277Z" fill="#F0F0F0"/>
<path d="M1062.93 379.456H1060.44V381.949H1062.93V379.456Z" fill="#F0F0F0"/>
<path d="M1062.93 383.635H1060.44V386.128H1062.93V383.635Z" fill="#F0F0F0"/>
<path d="M1062.93 387.814H1060.44V390.307H1062.93V387.814Z" fill="#F0F0F0"/>
<path d="M1062.93 391.993H1060.44V394.486H1062.93V391.993Z" fill="#F0F0F0"/>
<path d="M1058.98 362.74H1056.48V365.233H1058.98V362.74Z" fill="#F0F0F0"/>
<path d="M1058.98 366.919H1056.48V369.412H1058.98V366.919Z" fill="#F0F0F0"/>
<path d="M1058.98 371.098H1056.48V373.591H1058.98V371.098Z" fill="#F0F0F0"/>
<path d="M1058.98 375.277H1056.48V377.77H1058.98V375.277Z" fill="#F0F0F0"/>
<path d="M1058.98 379.456H1056.48V381.949H1058.98V379.456Z" fill="#F0F0F0"/>
<path d="M1058.98 383.635H1056.48V386.128H1058.98V383.635Z" fill="#F0F0F0"/>
<path d="M1058.98 391.993H1056.48V394.486H1058.98V391.993Z" fill="#F0F0F0"/>
<path d="M1058.98 396.172H1056.48V398.665H1058.98V396.172Z" fill="#F0F0F0"/>
<path d="M1058.98 408.709H1056.48V411.202H1058.98V408.709Z" fill="#F0F0F0"/>
<path d="M1058.98 412.888H1056.48V415.381H1058.98V412.888Z" fill="#F0F0F0"/>
<path d="M1058.98 417.067H1056.48V419.56H1058.98V417.067Z" fill="#F0F0F0"/>
<path d="M1058.98 421.246H1056.48V423.739H1058.98V421.246Z" fill="#F0F0F0"/>
<path d="M1058.98 425.425H1056.48V427.918H1058.98V425.425Z" fill="#F0F0F0"/>
<path d="M1058.98 429.604H1056.48V432.097H1058.98V429.604Z" fill="#F0F0F0"/>
<path d="M1058.98 433.783H1056.48V436.276H1058.98V433.783Z" fill="#F0F0F0"/>
<path d="M1055.02 362.74H1052.52V365.233H1055.02V362.74Z" fill="#F0F0F0"/>
<path d="M1055.02 366.919H1052.52V369.412H1055.02V366.919Z" fill="#F0F0F0"/>
<path d="M1055.02 371.098H1052.52V373.591H1055.02V371.098Z" fill="#F0F0F0"/>
<path d="M1055.02 375.277H1052.52V377.77H1055.02V375.277Z" fill="#F0F0F0"/>
<path d="M1055.02 379.456H1052.52V381.949H1055.02V379.456Z" fill="#F0F0F0"/>
<path d="M1055.02 383.635H1052.52V386.128H1055.02V383.635Z" fill="#F0F0F0"/>
<path d="M1055.02 396.172H1052.52V398.665H1055.02V396.172Z" fill="#F0F0F0"/>
<path d="M1055.02 400.351H1052.52V402.844H1055.02V400.351Z" fill="#F0F0F0"/>
<path d="M1055.02 404.53H1052.52V407.023H1055.02V404.53Z" fill="#F0F0F0"/>
<path d="M1055.02 408.709H1052.52V411.202H1055.02V408.709Z" fill="#F0F0F0"/>
<path d="M1055.02 412.888H1052.52V415.381H1055.02V412.888Z" fill="#F0F0F0"/>
<path d="M1055.02 417.067H1052.52V419.56H1055.02V417.067Z" fill="#F0F0F0"/>
<path d="M1055.02 421.246H1052.52V423.739H1055.02V421.246Z" fill="#F0F0F0"/>
<path d="M1055.02 425.425H1052.52V427.918H1055.02V425.425Z" fill="#F0F0F0"/>
<path d="M1055.02 429.604H1052.52V432.097H1055.02V429.604Z" fill="#F0F0F0"/>
<path d="M1055.02 433.783H1052.52V436.276H1055.02V433.783Z" fill="#F0F0F0"/>
<path d="M1055.02 437.962H1052.52V440.455H1055.02V437.962Z" fill="#F0F0F0"/>
<path d="M1055.02 446.32H1052.52V448.813H1055.02V446.32Z" fill="#F0F0F0"/>
<path d="M1051.06 362.74H1048.56V365.233H1051.06V362.74Z" fill="#F0F0F0"/>
<path d="M1051.06 366.919H1048.56V369.412H1051.06V366.919Z" fill="#F0F0F0"/>
<path d="M1051.06 371.098H1048.56V373.591H1051.06V371.098Z" fill="#F0F0F0"/>
<path d="M1051.06 375.277H1048.56V377.77H1051.06V375.277Z" fill="#F0F0F0"/>
<path d="M1051.06 379.456H1048.56V381.949H1051.06V379.456Z" fill="#F0F0F0"/>
<path d="M1051.06 383.635H1048.56V386.128H1051.06V383.635Z" fill="#F0F0F0"/>
<path d="M1051.06 396.172H1048.56V398.665H1051.06V396.172Z" fill="#F0F0F0"/>
<path d="M1051.06 400.351H1048.56V402.844H1051.06V400.351Z" fill="#F0F0F0"/>
<path d="M1051.06 404.53H1048.56V407.023H1051.06V404.53Z" fill="#F0F0F0"/>
<path d="M1051.06 408.709H1048.56V411.202H1051.06V408.709Z" fill="#F0F0F0"/>
<path d="M1051.06 421.246H1048.56V423.739H1051.06V421.246Z" fill="#F0F0F0"/>
<path d="M1051.06 425.425H1048.56V427.918H1051.06V425.425Z" fill="#F0F0F0"/>
<path d="M1051.06 429.604H1048.56V432.097H1051.06V429.604Z" fill="#F0F0F0"/>
<path d="M1051.06 433.783H1048.56V436.276H1051.06V433.783Z" fill="#F0F0F0"/>
<path d="M1051.06 437.962H1048.56V440.455H1051.06V437.962Z" fill="#F0F0F0"/>
<path d="M1051.06 446.32H1048.56V448.813H1051.06V446.32Z" fill="#F0F0F0"/>
<path d="M1051.06 450.499H1048.56V452.992H1051.06V450.499Z" fill="#F0F0F0"/>
<path d="M1015.13 401.598H1012.64V404.091H1015.13V401.598Z" fill="#F0F0F0"/>
<path d="M1015.13 405.777H1012.64V408.27H1015.13V405.777Z" fill="#F0F0F0"/>
<path d="M1015.13 409.956H1012.64V412.449H1015.13V409.956Z" fill="#F0F0F0"/>
<path d="M1015.13 414.134H1012.64V416.627H1015.13V414.134Z" fill="#F0F0F0"/>
<path d="M1015.13 418.314H1012.64V420.807H1015.13V418.314Z" fill="#F0F0F0"/>
<path d="M1015.13 422.492H1012.64V424.985H1015.13V422.492Z" fill="#F0F0F0"/>
<path d="M1015.13 426.672H1012.64V429.165H1015.13V426.672Z" fill="#F0F0F0"/>
<path d="M1015.13 439.208H1012.64V441.701H1015.13V439.208Z" fill="#F0F0F0"/>
<path d="M1015.13 443.387H1012.64V445.88H1015.13V443.387Z" fill="#F0F0F0"/>
<path d="M1015.13 447.566H1012.64V450.059H1015.13V447.566Z" fill="#F0F0F0"/>
<path d="M1011.17 401.598H1008.68V404.091H1011.17V401.598Z" fill="#F0F0F0"/>
<path d="M1011.17 405.777H1008.68V408.27H1011.17V405.777Z" fill="#F0F0F0"/>
<path d="M1011.17 409.956H1008.68V412.449H1011.17V409.956Z" fill="#F0F0F0"/>
<path d="M1011.17 414.134H1008.68V416.627H1011.17V414.134Z" fill="#F0F0F0"/>
<path d="M1011.17 418.314H1008.68V420.807H1011.17V418.314Z" fill="#F0F0F0"/>
<path d="M1011.17 422.492H1008.68V424.985H1011.17V422.492Z" fill="#F0F0F0"/>
<path d="M1011.17 426.672H1008.68V429.165H1011.17V426.672Z" fill="#F0F0F0"/>
<path d="M1007.21 401.598H1004.72V404.091H1007.21V401.598Z" fill="#F0F0F0"/>
<path d="M1007.21 405.777H1004.72V408.27H1007.21V405.777Z" fill="#F0F0F0"/>
<path d="M1007.21 409.956H1004.72V412.449H1007.21V409.956Z" fill="#F0F0F0"/>
<path d="M1007.21 414.134H1004.72V416.627H1007.21V414.134Z" fill="#F0F0F0"/>
<path d="M1007.21 418.314H1004.72V420.807H1007.21V418.314Z" fill="#F0F0F0"/>
<path d="M1007.21 422.492H1004.72V424.985H1007.21V422.492Z" fill="#F0F0F0"/>
<path d="M1007.21 426.672H1004.72V429.165H1007.21V426.672Z" fill="#F0F0F0"/>
<path d="M1003.26 401.598H1000.76V404.091H1003.26V401.598Z" fill="#F0F0F0"/>
<path d="M1003.26 405.777H1000.76V408.27H1003.26V405.777Z" fill="#F0F0F0"/>
<path d="M1003.26 409.956H1000.76V412.449H1003.26V409.956Z" fill="#F0F0F0"/>
<path d="M1003.26 414.134H1000.76V416.627H1003.26V414.134Z" fill="#F0F0F0"/>
<path d="M1003.26 418.314H1000.76V420.807H1003.26V418.314Z" fill="#F0F0F0"/>
<path d="M1003.26 422.492H1000.76V424.985H1003.26V422.492Z" fill="#F0F0F0"/>
<path d="M1003.26 426.672H1000.76V429.165H1003.26V426.672Z" fill="#F0F0F0"/>
<path d="M1003.26 430.85H1000.76V433.343H1003.26V430.85Z" fill="#F0F0F0"/>
<path d="M1003.26 435.029H1000.76V437.522H1003.26V435.029Z" fill="#F0F0F0"/>
<path d="M1003.26 439.208H1000.76V441.701H1003.26V439.208Z" fill="#F0F0F0"/>
<path d="M1003.26 443.387H1000.76V445.88H1003.26V443.387Z" fill="#F0F0F0"/>
<path d="M999.297 401.598H996.804V404.091H999.297V401.598Z" fill="#F0F0F0"/>
<path d="M999.297 405.777H996.804V408.27H999.297V405.777Z" fill="#F0F0F0"/>
<path d="M999.297 409.956H996.804V412.449H999.297V409.956Z" fill="#F0F0F0"/>
<path d="M999.297 414.134H996.804V416.627H999.297V414.134Z" fill="#F0F0F0"/>
<path d="M999.297 418.314H996.804V420.807H999.297V418.314Z" fill="#F0F0F0"/>
<path d="M999.297 422.492H996.804V424.985H999.297V422.492Z" fill="#F0F0F0"/>
<path d="M999.297 426.672H996.804V429.165H999.297V426.672Z" fill="#F0F0F0"/>
<path d="M999.297 430.85H996.804V433.343H999.297V430.85Z" fill="#F0F0F0"/>
<path d="M999.297 435.029H996.804V437.522H999.297V435.029Z" fill="#F0F0F0"/>
<path d="M999.297 439.208H996.804V441.701H999.297V439.208Z" fill="#F0F0F0"/>
<path d="M999.297 443.387H996.804V445.88H999.297V443.387Z" fill="#F0F0F0"/>
<path d="M999.297 447.566H996.804V450.059H999.297V447.566Z" fill="#F0F0F0"/>
<path d="M999.297 460.103H996.804V462.596H999.297V460.103Z" fill="#F0F0F0"/>
<path d="M999.297 464.282H996.804V466.775H999.297V464.282Z" fill="#F0F0F0"/>
<path d="M995.338 401.598H992.845V404.091H995.338V401.598Z" fill="#F0F0F0"/>
<path d="M995.338 405.777H992.845V408.27H995.338V405.777Z" fill="#F0F0F0"/>
<path d="M995.338 409.956H992.845V412.449H995.338V409.956Z" fill="#F0F0F0"/>
<path d="M995.338 422.492H992.845V424.985H995.338V422.492Z" fill="#F0F0F0"/>
<path d="M995.338 426.672H992.845V429.165H995.338V426.672Z" fill="#F0F0F0"/>
<path d="M995.338 430.85H992.845V433.343H995.338V430.85Z" fill="#F0F0F0"/>
<path d="M995.338 435.029H992.845V437.522H995.338V435.029Z" fill="#F0F0F0"/>
<path d="M995.338 439.208H992.845V441.701H995.338V439.208Z" fill="#F0F0F0"/>
<path d="M995.338 443.387H992.845V445.88H995.338V443.387Z" fill="#F0F0F0"/>
<path d="M995.338 447.566H992.845V450.059H995.338V447.566Z" fill="#F0F0F0"/>
<path d="M995.338 460.103H992.845V462.596H995.338V460.103Z" fill="#F0F0F0"/>
<path d="M995.338 464.282H992.845V466.775H995.338V464.282Z" fill="#F0F0F0"/>
<path d="M995.338 468.461H992.845V470.954H995.338V468.461Z" fill="#F0F0F0"/>
<path d="M953.841 376.524H951.348V379.017H953.841V376.524Z" fill="#F0F0F0"/>
<path d="M953.841 380.703H951.348V383.196H953.841V380.703Z" fill="#F0F0F0"/>
<path d="M953.841 384.882H951.348V387.375H953.841V384.882Z" fill="#F0F0F0"/>
<path d="M953.841 389.061H951.348V391.554H953.841V389.061Z" fill="#F0F0F0"/>
<path d="M953.841 393.24H951.348V395.733H953.841V393.24Z" fill="#F0F0F0"/>
<path d="M953.841 397.419H951.348V399.912H953.841V397.419Z" fill="#F0F0F0"/>
<path d="M953.841 401.598H951.348V404.091H953.841V401.598Z" fill="#F0F0F0"/>
<path d="M953.841 405.777H951.348V408.27H953.841V405.777Z" fill="#F0F0F0"/>
<path d="M953.841 409.956H951.348V412.449H953.841V409.956Z" fill="#F0F0F0"/>
<path d="M953.841 414.134H951.348V416.627H953.841V414.134Z" fill="#F0F0F0"/>
<path d="M953.841 418.314H951.348V420.807H953.841V418.314Z" fill="#F0F0F0"/>
<path d="M953.841 422.492H951.348V424.985H953.841V422.492Z" fill="#F0F0F0"/>
<path d="M953.841 426.672H951.348V429.165H953.841V426.672Z" fill="#F0F0F0"/>
<path d="M953.841 430.85H951.348V433.343H953.841V430.85Z" fill="#F0F0F0"/>
<path d="M953.841 435.029H951.348V437.522H953.841V435.029Z" fill="#F0F0F0"/>
<path d="M953.841 439.208H951.348V441.701H953.841V439.208Z" fill="#F0F0F0"/>
<path d="M953.841 443.387H951.348V445.88H953.841V443.387Z" fill="#F0F0F0"/>
<path d="M953.841 447.566H951.348V450.059H953.841V447.566Z" fill="#F0F0F0"/>
<path d="M953.841 451.745H951.348V454.238H953.841V451.745Z" fill="#F0F0F0"/>
<path d="M953.841 455.924H951.348V458.417H953.841V455.924Z" fill="#F0F0F0"/>
<path d="M953.841 460.103H951.348V462.596H953.841V460.103Z" fill="#F0F0F0"/>
<path d="M953.841 464.282H951.348V466.775H953.841V464.282Z" fill="#F0F0F0"/>
<path d="M953.841 468.461H951.348V470.954H953.841V468.461Z" fill="#F0F0F0"/>
<path d="M949.882 376.524H947.389V379.017H949.882V376.524Z" fill="#F0F0F0"/>
<path d="M949.882 380.703H947.389V383.196H949.882V380.703Z" fill="#F0F0F0"/>
<path d="M949.882 384.882H947.389V387.375H949.882V384.882Z" fill="#F0F0F0"/>
<path d="M949.882 389.061H947.389V391.554H949.882V389.061Z" fill="#F0F0F0"/>
<path d="M949.882 393.24H947.389V395.733H949.882V393.24Z" fill="#F0F0F0"/>
<path d="M949.882 397.419H947.389V399.912H949.882V397.419Z" fill="#F0F0F0"/>
<path d="M949.882 401.598H947.389V404.091H949.882V401.598Z" fill="#F0F0F0"/>
<path d="M949.882 405.777H947.389V408.27H949.882V405.777Z" fill="#F0F0F0"/>
<path d="M949.882 409.956H947.389V412.449H949.882V409.956Z" fill="#F0F0F0"/>
<path d="M949.882 414.134H947.389V416.627H949.882V414.134Z" fill="#F0F0F0"/>
<path d="M949.882 418.314H947.389V420.807H949.882V418.314Z" fill="#F0F0F0"/>
<path d="M949.882 422.492H947.389V424.985H949.882V422.492Z" fill="#F0F0F0"/>
<path d="M949.882 426.672H947.389V429.165H949.882V426.672Z" fill="#F0F0F0"/>
<path d="M949.882 430.85H947.389V433.343H949.882V430.85Z" fill="#F0F0F0"/>
<path d="M949.882 435.029H947.389V437.522H949.882V435.029Z" fill="#F0F0F0"/>
<path d="M949.882 439.208H947.389V441.701H949.882V439.208Z" fill="#F0F0F0"/>
<path d="M949.882 443.387H947.389V445.88H949.882V443.387Z" fill="#F0F0F0"/>
<path d="M949.882 447.566H947.389V450.059H949.882V447.566Z" fill="#F0F0F0"/>
<path d="M949.882 451.745H947.389V454.238H949.882V451.745Z" fill="#F0F0F0"/>
<path d="M945.923 376.524H943.43V379.017H945.923V376.524Z" fill="#F0F0F0"/>
<path d="M945.923 380.703H943.43V383.196H945.923V380.703Z" fill="#F0F0F0"/>
<path d="M945.923 384.882H943.43V387.375H945.923V384.882Z" fill="#F0F0F0"/>
<path d="M945.923 389.061H943.43V391.554H945.923V389.061Z" fill="#F0F0F0"/>
<path d="M945.923 393.24H943.43V395.733H945.923V393.24Z" fill="#F0F0F0"/>
<path d="M945.923 397.419H943.43V399.912H945.923V397.419Z" fill="#F0F0F0"/>
<path d="M945.923 401.598H943.43V404.091H945.923V401.598Z" fill="#F0F0F0"/>
<path d="M945.923 405.777H943.43V408.27H945.923V405.777Z" fill="#F0F0F0"/>
<path d="M945.923 409.956H943.43V412.449H945.923V409.956Z" fill="#F0F0F0"/>
<path d="M945.923 414.134H943.43V416.627H945.923V414.134Z" fill="#F0F0F0"/>
<path d="M945.923 418.314H943.43V420.807H945.923V418.314Z" fill="#F0F0F0"/>
<path d="M945.923 422.492H943.43V424.985H945.923V422.492Z" fill="#F0F0F0"/>
<path d="M945.923 426.672H943.43V429.165H945.923V426.672Z" fill="#F0F0F0"/>
<path d="M945.923 430.85H943.43V433.343H945.923V430.85Z" fill="#F0F0F0"/>
<path d="M945.923 435.029H943.43V437.522H945.923V435.029Z" fill="#F0F0F0"/>
<path d="M945.923 439.208H943.43V441.701H945.923V439.208Z" fill="#F0F0F0"/>
<path d="M945.923 443.387H943.43V445.88H945.923V443.387Z" fill="#F0F0F0"/>
<path d="M945.923 447.566H943.43V450.059H945.923V447.566Z" fill="#F0F0F0"/>
<path d="M945.923 451.745H943.43V454.238H945.923V451.745Z" fill="#F0F0F0"/>
<path d="M941.964 376.524H939.471V379.017H941.964V376.524Z" fill="#F0F0F0"/>
<path d="M941.964 380.703H939.471V383.196H941.964V380.703Z" fill="#F0F0F0"/>
<path d="M941.964 384.882H939.471V387.375H941.964V384.882Z" fill="#F0F0F0"/>
<path d="M941.964 389.061H939.471V391.554H941.964V389.061Z" fill="#F0F0F0"/>
<path d="M941.964 393.24H939.471V395.733H941.964V393.24Z" fill="#F0F0F0"/>
<path d="M941.964 397.419H939.471V399.912H941.964V397.419Z" fill="#F0F0F0"/>
<path d="M941.964 401.598H939.471V404.091H941.964V401.598Z" fill="#F0F0F0"/>
<path d="M941.964 405.777H939.471V408.27H941.964V405.777Z" fill="#F0F0F0"/>
<path d="M941.964 409.956H939.471V412.449H941.964V409.956Z" fill="#F0F0F0"/>
<path d="M941.964 414.134H939.471V416.627H941.964V414.134Z" fill="#F0F0F0"/>
<path d="M941.964 418.314H939.471V420.807H941.964V418.314Z" fill="#F0F0F0"/>
<path d="M941.964 422.492H939.471V424.985H941.964V422.492Z" fill="#F0F0F0"/>
<path d="M941.964 426.672H939.471V429.165H941.964V426.672Z" fill="#F0F0F0"/>
<path d="M941.964 430.85H939.471V433.343H941.964V430.85Z" fill="#F0F0F0"/>
<path d="M941.964 435.029H939.471V437.522H941.964V435.029Z" fill="#F0F0F0"/>
<path d="M938.005 376.524H935.512V379.017H938.005V376.524Z" fill="#F0F0F0"/>
<path d="M938.005 380.703H935.512V383.196H938.005V380.703Z" fill="#F0F0F0"/>
<path d="M938.005 384.882H935.512V387.375H938.005V384.882Z" fill="#F0F0F0"/>
<path d="M938.005 389.061H935.512V391.554H938.005V389.061Z" fill="#F0F0F0"/>
<path d="M938.005 393.24H935.512V395.733H938.005V393.24Z" fill="#F0F0F0"/>
<path d="M938.005 397.419H935.512V399.912H938.005V397.419Z" fill="#F0F0F0"/>
<path d="M938.005 401.598H935.512V404.091H938.005V401.598Z" fill="#F0F0F0"/>
<path d="M938.005 405.777H935.512V408.27H938.005V405.777Z" fill="#F0F0F0"/>
<path d="M938.005 409.956H935.512V412.449H938.005V409.956Z" fill="#F0F0F0"/>
<path d="M938.005 414.134H935.512V416.627H938.005V414.134Z" fill="#F0F0F0"/>
<path d="M938.005 418.314H935.512V420.807H938.005V418.314Z" fill="#F0F0F0"/>
<path d="M938.005 422.492H935.512V424.985H938.005V422.492Z" fill="#F0F0F0"/>
<path d="M938.005 426.672H935.512V429.165H938.005V426.672Z" fill="#F0F0F0"/>
<path d="M934.046 376.524H931.553V379.017H934.046V376.524Z" fill="#F0F0F0"/>
<path d="M934.046 380.703H931.553V383.196H934.046V380.703Z" fill="#F0F0F0"/>
<path d="M934.046 384.882H931.553V387.375H934.046V384.882Z" fill="#F0F0F0"/>
<path d="M934.046 389.061H931.553V391.554H934.046V389.061Z" fill="#F0F0F0"/>
<path d="M934.046 393.24H931.553V395.733H934.046V393.24Z" fill="#F0F0F0"/>
<path d="M934.046 397.419H931.553V399.912H934.046V397.419Z" fill="#F0F0F0"/>
<path d="M934.046 401.598H931.553V404.091H934.046V401.598Z" fill="#F0F0F0"/>
<path d="M934.046 405.777H931.553V408.27H934.046V405.777Z" fill="#F0F0F0"/>
<path d="M934.046 409.956H931.553V412.449H934.046V409.956Z" fill="#F0F0F0"/>
<path d="M934.046 414.134H931.553V416.627H934.046V414.134Z" fill="#F0F0F0"/>
<path d="M934.046 418.314H931.553V420.807H934.046V418.314Z" fill="#F0F0F0"/>
<path d="M934.046 422.492H931.553V424.985H934.046V422.492Z" fill="#F0F0F0"/>
<path d="M1165.14 375.277H1162.64V377.77H1165.14V375.277Z" fill="#F0F0F0"/>
<path d="M1165.14 379.456H1162.64V381.949H1165.14V379.456Z" fill="#F0F0F0"/>
<path d="M1165.14 383.635H1162.64V386.128H1165.14V383.635Z" fill="#F0F0F0"/>
<path d="M1165.14 387.814H1162.64V390.307H1165.14V387.814Z" fill="#F0F0F0"/>
<path d="M1165.14 391.993H1162.64V394.486H1165.14V391.993Z" fill="#F0F0F0"/>
<path d="M1165.14 396.172H1162.64V398.665H1165.14V396.172Z" fill="#F0F0F0"/>
<path d="M1165.14 400.351H1162.64V402.844H1165.14V400.351Z" fill="#F0F0F0"/>
<path d="M1165.14 404.53H1162.64V407.023H1165.14V404.53Z" fill="#F0F0F0"/>
<path d="M1165.14 408.709H1162.64V411.202H1165.14V408.709Z" fill="#F0F0F0"/>
<path d="M1165.14 412.888H1162.64V415.381H1165.14V412.888Z" fill="#F0F0F0"/>
<path d="M1165.14 417.067H1162.64V419.56H1165.14V417.067Z" fill="#F0F0F0"/>
<path d="M1165.14 421.246H1162.64V423.739H1165.14V421.246Z" fill="#F0F0F0"/>
<path d="M1165.14 425.425H1162.64V427.918H1165.14V425.425Z" fill="#F0F0F0"/>
<path d="M1165.14 429.604H1162.64V432.097H1165.14V429.604Z" fill="#F0F0F0"/>
<path d="M1165.14 433.783H1162.64V436.276H1165.14V433.783Z" fill="#F0F0F0"/>
<path d="M1165.14 437.962H1162.64V440.455H1165.14V437.962Z" fill="#F0F0F0"/>
<path d="M1165.14 442.141H1162.64V444.634H1165.14V442.141Z" fill="#F0F0F0"/>
<path d="M1165.14 450.499H1162.64V452.992H1165.14V450.499Z" fill="#F0F0F0"/>
<path d="M1165.14 454.678H1162.64V457.171H1165.14V454.678Z" fill="#F0F0F0"/>
<path d="M1165.14 458.857H1162.64V461.35H1165.14V458.857Z" fill="#F0F0F0"/>
<path d="M1165.14 463.036H1162.64V465.529H1165.14V463.036Z" fill="#F0F0F0"/>
<path d="M1165.14 467.215H1162.64V469.708H1165.14V467.215Z" fill="#F0F0F0"/>
<path d="M1161.18 375.277H1158.68V377.77H1161.18V375.277Z" fill="#F0F0F0"/>
<path d="M1161.18 379.456H1158.68V381.949H1161.18V379.456Z" fill="#F0F0F0"/>
<path d="M1161.18 383.635H1158.68V386.128H1161.18V383.635Z" fill="#F0F0F0"/>
<path d="M1161.18 387.814H1158.68V390.307H1161.18V387.814Z" fill="#F0F0F0"/>
<path d="M1161.18 391.993H1158.68V394.486H1161.18V391.993Z" fill="#F0F0F0"/>
<path d="M1161.18 396.172H1158.68V398.665H1161.18V396.172Z" fill="#F0F0F0"/>
<path d="M1161.18 400.351H1158.68V402.844H1161.18V400.351Z" fill="#F0F0F0"/>
<path d="M1161.18 404.53H1158.68V407.023H1161.18V404.53Z" fill="#F0F0F0"/>
<path d="M1161.18 408.709H1158.68V411.202H1161.18V408.709Z" fill="#F0F0F0"/>
<path d="M1161.18 412.888H1158.68V415.381H1161.18V412.888Z" fill="#F0F0F0"/>
<path d="M1161.18 417.067H1158.68V419.56H1161.18V417.067Z" fill="#F0F0F0"/>
<path d="M1161.18 421.246H1158.68V423.739H1161.18V421.246Z" fill="#F0F0F0"/>
<path d="M1161.18 425.425H1158.68V427.918H1161.18V425.425Z" fill="#F0F0F0"/>
<path d="M1161.18 429.604H1158.68V432.097H1161.18V429.604Z" fill="#F0F0F0"/>
<path d="M1161.18 433.783H1158.68V436.276H1161.18V433.783Z" fill="#F0F0F0"/>
<path d="M1161.18 437.962H1158.68V440.455H1161.18V437.962Z" fill="#F0F0F0"/>
<path d="M1161.18 463.036H1158.68V465.529H1161.18V463.036Z" fill="#F0F0F0"/>
<path d="M1161.18 467.215H1158.68V469.708H1161.18V467.215Z" fill="#F0F0F0"/>
<path d="M1157.22 375.277H1154.72V377.77H1157.22V375.277Z" fill="#F0F0F0"/>
<path d="M1157.22 379.456H1154.72V381.949H1157.22V379.456Z" fill="#F0F0F0"/>
<path d="M1157.22 383.635H1154.72V386.128H1157.22V383.635Z" fill="#F0F0F0"/>
<path d="M1157.22 387.814H1154.72V390.307H1157.22V387.814Z" fill="#F0F0F0"/>
<path d="M1157.22 391.993H1154.72V394.486H1157.22V391.993Z" fill="#F0F0F0"/>
<path d="M1157.22 396.172H1154.72V398.665H1157.22V396.172Z" fill="#F0F0F0"/>
<path d="M1157.22 400.351H1154.72V402.844H1157.22V400.351Z" fill="#F0F0F0"/>
<path d="M1157.22 404.53H1154.72V407.023H1157.22V404.53Z" fill="#F0F0F0"/>
<path d="M1157.22 408.709H1154.72V411.202H1157.22V408.709Z" fill="#F0F0F0"/>
<path d="M1157.22 412.888H1154.72V415.381H1157.22V412.888Z" fill="#F0F0F0"/>
<path d="M1157.22 417.067H1154.72V419.56H1157.22V417.067Z" fill="#F0F0F0"/>
<path d="M1157.22 421.246H1154.72V423.739H1157.22V421.246Z" fill="#F0F0F0"/>
<path d="M1157.22 425.425H1154.72V427.918H1157.22V425.425Z" fill="#F0F0F0"/>
<path d="M1157.22 429.604H1154.72V432.097H1157.22V429.604Z" fill="#F0F0F0"/>
<path d="M1157.22 433.783H1154.72V436.276H1157.22V433.783Z" fill="#F0F0F0"/>
<path d="M1157.22 437.962H1154.72V440.455H1157.22V437.962Z" fill="#F0F0F0"/>
<path d="M1157.22 446.32H1154.72V448.813H1157.22V446.32Z" fill="#F0F0F0"/>
<path d="M1157.22 450.499H1154.72V452.992H1157.22V450.499Z" fill="#F0F0F0"/>
<path d="M1157.22 454.678H1154.72V457.171H1157.22V454.678Z" fill="#F0F0F0"/>
<path d="M1157.22 458.857H1154.72V461.35H1157.22V458.857Z" fill="#F0F0F0"/>
<path d="M1157.22 467.215H1154.72V469.708H1157.22V467.215Z" fill="#F0F0F0"/>
<path d="M1088.15 404.53H1085.66V407.023H1088.15V404.53Z" fill="#F0F0F0"/>
<path d="M1088.15 408.709H1085.66V411.202H1088.15V408.709Z" fill="#F0F0F0"/>
<path d="M1088.15 412.888H1085.66V415.381H1088.15V412.888Z" fill="#F0F0F0"/>
<path d="M1088.15 417.067H1085.66V419.56H1088.15V417.067Z" fill="#F0F0F0"/>
<path d="M1088.15 421.246H1085.66V423.739H1088.15V421.246Z" fill="#F0F0F0"/>
<path d="M1088.15 425.425H1085.66V427.918H1088.15V425.425Z" fill="#F0F0F0"/>
<path d="M1088.15 429.604H1085.66V432.097H1088.15V429.604Z" fill="#F0F0F0"/>
<path d="M1088.15 433.783H1085.66V436.276H1088.15V433.783Z" fill="#F0F0F0"/>
<path d="M1088.15 437.962H1085.66V440.455H1088.15V437.962Z" fill="#F0F0F0"/>
<path d="M1088.15 442.141H1085.66V444.634H1088.15V442.141Z" fill="#F0F0F0"/>
<path d="M1088.15 446.32H1085.66V448.813H1088.15V446.32Z" fill="#F0F0F0"/>
<path d="M1088.15 450.499H1085.66V452.992H1088.15V450.499Z" fill="#F0F0F0"/>
<path d="M1088.15 454.678H1085.66V457.171H1088.15V454.678Z" fill="#F0F0F0"/>
<path d="M1088.15 463.036H1085.66V465.529H1088.15V463.036Z" fill="#F0F0F0"/>
<path d="M1088.15 467.215H1085.66V469.708H1088.15V467.215Z" fill="#F0F0F0"/>
<path d="M1088.15 471.394H1085.66V473.887H1088.15V471.394Z" fill="#F0F0F0"/>
<path d="M1088.15 475.573H1085.66V478.066H1088.15V475.573Z" fill="#F0F0F0"/>
<path d="M1088.15 483.931H1085.66V486.424H1088.15V483.931Z" fill="#F0F0F0"/>
<path d="M1088.15 488.11H1085.66V490.603H1088.15V488.11Z" fill="#F0F0F0"/>
<path d="M1088.15 492.289H1085.66V494.782H1088.15V492.289Z" fill="#F0F0F0"/>
<path d="M1084.2 404.53H1081.7V407.023H1084.2V404.53Z" fill="#F0F0F0"/>
<path d="M1084.2 408.709H1081.7V411.202H1084.2V408.709Z" fill="#F0F0F0"/>
<path d="M1084.2 412.888H1081.7V415.381H1084.2V412.888Z" fill="#F0F0F0"/>
<path d="M1084.2 417.067H1081.7V419.56H1084.2V417.067Z" fill="#F0F0F0"/>
<path d="M1084.2 421.246H1081.7V423.739H1084.2V421.246Z" fill="#F0F0F0"/>
<path d="M1084.2 425.425H1081.7V427.918H1084.2V425.425Z" fill="#F0F0F0"/>
<path d="M1084.2 429.604H1081.7V432.097H1084.2V429.604Z" fill="#F0F0F0"/>
<path d="M1084.2 433.783H1081.7V436.276H1084.2V433.783Z" fill="#F0F0F0"/>
<path d="M1084.2 437.962H1081.7V440.455H1084.2V437.962Z" fill="#F0F0F0"/>
<path d="M1084.2 442.141H1081.7V444.634H1084.2V442.141Z" fill="#F0F0F0"/>
<path d="M1084.2 446.32H1081.7V448.813H1084.2V446.32Z" fill="#F0F0F0"/>
<path d="M1084.2 450.499H1081.7V452.992H1084.2V450.499Z" fill="#F0F0F0"/>
<path d="M1084.2 454.678H1081.7V457.171H1084.2V454.678Z" fill="#F0F0F0"/>
<path d="M1084.2 467.215H1081.7V469.708H1084.2V467.215Z" fill="#F0F0F0"/>
<path d="M1084.2 471.394H1081.7V473.887H1084.2V471.394Z" fill="#F0F0F0"/>
<path d="M1084.2 479.752H1081.7V482.245H1084.2V479.752Z" fill="#F0F0F0"/>
<path d="M1084.2 483.931H1081.7V486.424H1084.2V483.931Z" fill="#F0F0F0"/>
<path d="M1084.2 488.11H1081.7V490.603H1084.2V488.11Z" fill="#F0F0F0"/>
<path d="M1084.2 492.289H1081.7V494.782H1084.2V492.289Z" fill="#F0F0F0"/>
<path d="M1080.24 404.53H1077.74V407.023H1080.24V404.53Z" fill="#F0F0F0"/>
<path d="M1080.24 408.709H1077.74V411.202H1080.24V408.709Z" fill="#F0F0F0"/>
<path d="M1080.24 412.888H1077.74V415.381H1080.24V412.888Z" fill="#F0F0F0"/>
<path d="M1080.24 417.067H1077.74V419.56H1080.24V417.067Z" fill="#F0F0F0"/>
<path d="M1080.24 421.246H1077.74V423.739H1080.24V421.246Z" fill="#F0F0F0"/>
<path d="M1080.24 425.425H1077.74V427.918H1080.24V425.425Z" fill="#F0F0F0"/>
<path d="M1080.24 429.604H1077.74V432.097H1080.24V429.604Z" fill="#F0F0F0"/>
<path d="M1080.24 433.783H1077.74V436.276H1080.24V433.783Z" fill="#F0F0F0"/>
<path d="M1080.24 437.962H1077.74V440.455H1080.24V437.962Z" fill="#F0F0F0"/>
<path d="M1080.24 442.141H1077.74V444.634H1080.24V442.141Z" fill="#F0F0F0"/>
<path d="M1080.24 446.32H1077.74V448.813H1080.24V446.32Z" fill="#F0F0F0"/>
<path d="M1080.24 450.499H1077.74V452.992H1080.24V450.499Z" fill="#F0F0F0"/>
<path d="M1080.24 454.678H1077.74V457.171H1080.24V454.678Z" fill="#F0F0F0"/>
<path d="M1080.24 458.857H1077.74V461.35H1080.24V458.857Z" fill="#F0F0F0"/>
<path d="M1080.24 467.215H1077.74V469.708H1080.24V467.215Z" fill="#F0F0F0"/>
<path d="M1080.24 475.573H1077.74V478.066H1080.24V475.573Z" fill="#F0F0F0"/>
<path d="M1080.24 479.752H1077.74V482.245H1080.24V479.752Z" fill="#F0F0F0"/>
<path d="M1080.24 483.931H1077.74V486.424H1080.24V483.931Z" fill="#F0F0F0"/>
<path d="M1080.24 488.11H1077.74V490.603H1080.24V488.11Z" fill="#F0F0F0"/>
<path d="M1080.24 492.289H1077.74V494.782H1080.24V492.289Z" fill="#F0F0F0"/>
<path d="M1104.28 428.358H1101.79V430.851H1104.28V428.358Z" fill="#F0F0F0"/>
<path d="M1104.28 432.537H1101.79V435.03H1104.28V432.537Z" fill="#F0F0F0"/>
<path d="M1104.28 436.716H1101.79V439.209H1104.28V436.716Z" fill="#F0F0F0"/>
<path d="M1104.28 440.895H1101.79V443.388H1104.28V440.895Z" fill="#F0F0F0"/>
<path d="M1104.28 445.074H1101.79V447.567H1104.28V445.074Z" fill="#F0F0F0"/>
<path d="M1104.28 449.253H1101.79V451.746H1104.28V449.253Z" fill="#F0F0F0"/>
<path d="M1104.28 461.79H1101.79V464.283H1104.28V461.79Z" fill="#F0F0F0"/>
<path d="M1104.28 465.969H1101.79V468.462H1104.28V465.969Z" fill="#F0F0F0"/>
<path d="M1104.28 470.147H1101.79V472.64H1104.28V470.147Z" fill="#F0F0F0"/>
<path d="M1104.28 474.327H1101.79V476.82H1104.28V474.327Z" fill="#F0F0F0"/>
<path d="M1104.28 478.505H1101.79V480.998H1104.28V478.505Z" fill="#F0F0F0"/>
<path d="M1104.28 482.684H1101.79V485.177H1104.28V482.684Z" fill="#F0F0F0"/>
<path d="M1104.28 486.863H1101.79V489.356H1104.28V486.863Z" fill="#F0F0F0"/>
<path d="M1100.32 428.358H1097.83V430.851H1100.32V428.358Z" fill="#F0F0F0"/>
<path d="M1100.32 432.537H1097.83V435.03H1100.32V432.537Z" fill="#F0F0F0"/>
<path d="M1100.32 436.716H1097.83V439.209H1100.32V436.716Z" fill="#F0F0F0"/>
<path d="M1100.32 440.895H1097.83V443.388H1100.32V440.895Z" fill="#F0F0F0"/>
<path d="M1100.32 445.074H1097.83V447.567H1100.32V445.074Z" fill="#F0F0F0"/>
<path d="M1100.32 449.253H1097.83V451.746H1100.32V449.253Z" fill="#F0F0F0"/>
<path d="M1100.32 461.79H1097.83V464.283H1100.32V461.79Z" fill="#F0F0F0"/>
<path d="M1100.32 465.969H1097.83V468.462H1100.32V465.969Z" fill="#F0F0F0"/>
<path d="M1100.32 470.147H1097.83V472.64H1100.32V470.147Z" fill="#F0F0F0"/>
<path d="M1100.32 474.327H1097.83V476.82H1100.32V474.327Z" fill="#F0F0F0"/>
<path d="M1100.32 478.505H1097.83V480.998H1100.32V478.505Z" fill="#F0F0F0"/>
<path d="M1100.32 482.684H1097.83V485.177H1100.32V482.684Z" fill="#F0F0F0"/>
<path d="M1100.32 491.042H1097.83V493.535H1100.32V491.042Z" fill="#F0F0F0"/>
<path d="M968.798 409.956H966.305V412.449H968.798V409.956Z" fill="#F0F0F0"/>
<path d="M968.798 414.134H966.305V416.627H968.798V414.134Z" fill="#F0F0F0"/>
<path d="M968.798 418.314H966.305V420.807H968.798V418.314Z" fill="#F0F0F0"/>
<path d="M968.798 422.492H966.305V424.985H968.798V422.492Z" fill="#F0F0F0"/>
<path d="M968.798 426.672H966.305V429.165H968.798V426.672Z" fill="#F0F0F0"/>
<path d="M968.798 430.85H966.305V433.343H968.798V430.85Z" fill="#F0F0F0"/>
<path d="M968.798 435.029H966.305V437.522H968.798V435.029Z" fill="#F0F0F0"/>
<path d="M968.798 439.208H966.305V441.701H968.798V439.208Z" fill="#F0F0F0"/>
<path d="M968.798 443.387H966.305V445.88H968.798V443.387Z" fill="#F0F0F0"/>
<path d="M968.798 447.566H966.305V450.059H968.798V447.566Z" fill="#F0F0F0"/>
<path d="M968.798 451.745H966.305V454.238H968.798V451.745Z" fill="#F0F0F0"/>
<path d="M968.798 460.103H966.305V462.596H968.798V460.103Z" fill="#F0F0F0"/>
<path d="M968.798 464.282H966.305V466.775H968.798V464.282Z" fill="#F0F0F0"/>
<path d="M968.798 468.461H966.305V470.954H968.798V468.461Z" fill="#F0F0F0"/>
<path d="M968.798 472.64H966.305V475.133H968.798V472.64Z" fill="#F0F0F0"/>
<path d="M968.798 476.819H966.305V479.312H968.798V476.819Z" fill="#F0F0F0"/>
<path d="M968.798 480.998H966.305V483.491H968.798V480.998Z" fill="#F0F0F0"/>
<path d="M968.798 485.177H966.305V487.67H968.798V485.177Z" fill="#F0F0F0"/>
<path d="M968.798 489.356H966.305V491.849H968.798V489.356Z" fill="#F0F0F0"/>
<path d="M964.839 409.956H962.346V412.449H964.839V409.956Z" fill="#F0F0F0"/>
<path d="M964.839 414.134H962.346V416.627H964.839V414.134Z" fill="#F0F0F0"/>
<path d="M964.839 418.314H962.346V420.807H964.839V418.314Z" fill="#F0F0F0"/>
<path d="M964.839 422.492H962.346V424.985H964.839V422.492Z" fill="#F0F0F0"/>
<path d="M964.839 426.672H962.346V429.165H964.839V426.672Z" fill="#F0F0F0"/>
<path d="M964.839 430.85H962.346V433.343H964.839V430.85Z" fill="#F0F0F0"/>
<path d="M964.839 435.029H962.346V437.522H964.839V435.029Z" fill="#F0F0F0"/>
<path d="M964.839 439.208H962.346V441.701H964.839V439.208Z" fill="#F0F0F0"/>
<path d="M964.839 443.387H962.346V445.88H964.839V443.387Z" fill="#F0F0F0"/>
<path d="M964.839 447.566H962.346V450.059H964.839V447.566Z" fill="#F0F0F0"/>
<path d="M964.839 451.745H962.346V454.238H964.839V451.745Z" fill="#F0F0F0"/>
<path d="M964.839 455.924H962.346V458.417H964.839V455.924Z" fill="#F0F0F0"/>
<path d="M964.839 460.103H962.346V462.596H964.839V460.103Z" fill="#F0F0F0"/>
<path d="M964.839 464.282H962.346V466.775H964.839V464.282Z" fill="#F0F0F0"/>
<path d="M964.839 468.461H962.346V470.954H964.839V468.461Z" fill="#F0F0F0"/>
<path d="M964.839 472.64H962.346V475.133H964.839V472.64Z" fill="#F0F0F0"/>
<path d="M964.839 476.819H962.346V479.312H964.839V476.819Z" fill="#F0F0F0"/>
<path d="M964.839 480.998H962.346V483.491H964.839V480.998Z" fill="#F0F0F0"/>
<path d="M964.839 485.177H962.346V487.67H964.839V485.177Z" fill="#F0F0F0"/>
<path d="M964.839 489.356H962.346V491.849H964.839V489.356Z" fill="#F0F0F0"/>
<path d="M988.299 426.232H985.806V428.725H988.299V426.232Z" fill="#F0F0F0"/>
<path d="M988.299 430.41H985.806V432.903H988.299V430.41Z" fill="#F0F0F0"/>
<path d="M988.299 434.59H985.806V437.083H988.299V434.59Z" fill="#F0F0F0"/>
<path d="M988.299 438.768H985.806V441.261H988.299V438.768Z" fill="#F0F0F0"/>
<path d="M988.299 442.948H985.806V445.441H988.299V442.948Z" fill="#F0F0F0"/>
<path d="M988.299 447.126H985.806V449.619H988.299V447.126Z" fill="#F0F0F0"/>
<path d="M988.299 451.305H985.806V453.798H988.299V451.305Z" fill="#F0F0F0"/>
<path d="M988.299 455.484H985.806V457.977H988.299V455.484Z" fill="#F0F0F0"/>
<path d="M988.299 459.663H985.806V462.156H988.299V459.663Z" fill="#F0F0F0"/>
<path d="M988.299 463.842H985.806V466.335H988.299V463.842Z" fill="#F0F0F0"/>
<path d="M984.341 426.232H981.848V428.725H984.341V426.232Z" fill="#F0F0F0"/>
<path d="M984.341 430.41H981.848V432.903H984.341V430.41Z" fill="#F0F0F0"/>
<path d="M984.341 434.59H981.848V437.083H984.341V434.59Z" fill="#F0F0F0"/>
<path d="M984.341 438.768H981.848V441.261H984.341V438.768Z" fill="#F0F0F0"/>
<path d="M984.341 442.948H981.848V445.441H984.341V442.948Z" fill="#F0F0F0"/>
<path d="M984.341 447.126H981.848V449.619H984.341V447.126Z" fill="#F0F0F0"/>
<path d="M984.341 451.305H981.848V453.798H984.341V451.305Z" fill="#F0F0F0"/>
<path d="M984.341 455.484H981.848V457.977H984.341V455.484Z" fill="#F0F0F0"/>
<path d="M984.341 459.663H981.848V462.156H984.341V459.663Z" fill="#F0F0F0"/>
<path d="M1007.9 267.639H1003.71V500.715H1007.9V267.639Z" fill="#E0E0E0"/>
<path d="M1086.6 267.639H1082.42V500.715H1086.6V267.639Z" fill="#E0E0E0"/>
<path d="M1165.3 267.639H1161.12V500.715H1165.3V267.639Z" fill="#E0E0E0"/>
<path d="M898.007 532.281H863.417V482.451C863.417 480.018 865.389 478.045 867.823 478.045H893.602C896.035 478.045 898.008 480.017 898.008 482.451L898.007 532.281Z" fill="#F0F0F0"/>
<path d="M898.008 485.377H863.418V489.262H898.008V485.377Z" fill="#E6E6E6"/>
<path d="M891.703 525.712H883.086C881.775 525.712 880.712 526.775 880.712 528.086V532.282H894.077V528.086C894.077 526.774 893.014 525.712 891.703 525.712Z" fill="#E0E0E0"/>
<path d="M894.122 532.281H884.536C883.687 532.281 882.999 531.593 882.999 530.744C882.999 529.895 883.687 529.207 884.536 529.207H894.122C894.971 529.207 895.659 529.895 895.659 530.744C895.659 531.593 894.971 532.281 894.122 532.281Z" fill="#E6E6E6"/>
<path d="M1047.7 256.67C1060.36 253.68 1068.2 240.994 1065.21 228.334C1062.22 215.674 1049.54 207.835 1036.88 210.824C1024.22 213.814 1016.38 226.5 1019.37 239.16C1022.35 251.82 1035.04 259.659 1047.7 256.67Z" fill="#E0E0E0"/>
<path d="M1045.51 253.53C1056.43 251.758 1063.85 241.471 1062.07 230.553C1060.3 219.635 1050.02 212.221 1039.1 213.993C1028.18 215.765 1020.77 226.052 1022.54 236.97C1024.31 247.888 1034.6 255.302 1045.51 253.53Z" fill="#F0F0F0"/>
<path d="M1043.25 220.028V234.028L1052.52 228.778" fill="#F0F0F0"/>
<path d="M1043.25 220.028V234.028L1052.52 228.778" stroke="#E0E0E0" stroke-width="2" stroke-miterlimit="10" stroke-linecap="round" stroke-linejoin="round"/>
<path d="M816.931 463.641C815.131 460.677 812.167 463.255 812.167 463.255C812.59 457.575 807.365 453.69 807.365 453.69C807.365 453.69 813.437 453.69 814.284 447.896C815.131 442.102 812.167 444.797 809.386 444.758C806.605 444.718 803.698 452.843 807.365 457.413C811.032 461.982 810.05 469.782 801.58 477.283C799.514 479.113 798.109 481.549 797.16 484.185C797.799 477.293 798.16 467.583 796.132 461.1C792.687 450.09 799.251 447.126 801.157 441.621C803.063 436.116 796.132 431.458 796.132 431.458C796.132 431.458 802.639 428.494 799.463 425.106C796.287 421.718 789.723 422.179 789.723 426.607C789.723 431.034 794.169 432.728 794.169 432.728C794.169 432.728 799.25 438.021 799.25 440.774C799.25 443.527 794.169 449.455 794.169 449.455C794.169 449.455 796.498 444.381 791.84 444.166C787.182 443.95 785.7 450.09 787.605 452.843C789.51 455.596 792.686 453.266 792.686 453.266C792.686 453.266 793.056 459.194 794.141 462.794C794.618 464.377 794.394 470.587 793.993 477.049C793.055 474.716 791.728 472.579 789.869 470.931C781.4 463.429 780.417 455.63 784.084 451.061C787.751 446.492 784.844 438.367 782.063 438.407C779.282 438.446 776.318 435.751 777.165 441.545C778.012 447.339 784.084 447.339 784.084 447.339C784.084 447.339 778.859 451.224 779.282 456.904C779.282 456.904 776.318 454.326 774.518 457.291C771.305 462.583 778.752 465.866 780.004 463.261C780.004 463.261 795.797 474.441 791.986 490.532L792.871 491.839C792.757 493.138 792.686 493.92 792.686 493.92L793.921 493.388L795.326 495.463C795.253 499.485 795.686 502.458 795.686 502.458L799.462 496.884C795.651 480.793 811.443 469.613 811.443 469.613C812.697 472.215 820.144 468.933 816.931 463.641Z" fill="#E0E0E0"/>
<path opacity="0.2" d="M816.931 463.641C815.131 460.677 812.167 463.255 812.167 463.255C812.59 457.575 807.365 453.69 807.365 453.69C807.365 453.69 813.437 453.69 814.284 447.896C815.131 442.102 812.167 444.797 809.386 444.758C806.605 444.718 803.698 452.843 807.365 457.413C811.032 461.982 810.05 469.782 801.58 477.283C799.514 479.113 798.109 481.549 797.16 484.185C797.799 477.293 798.16 467.583 796.132 461.1C792.687 450.09 799.251 447.126 801.157 441.621C803.063 436.116 796.132 431.458 796.132 431.458C796.132 431.458 802.639 428.494 799.463 425.106C796.287 421.718 789.723 422.179 789.723 426.607C789.723 431.034 794.169 432.728 794.169 432.728C794.169 432.728 799.25 438.021 799.25 440.774C799.25 443.527 794.169 449.455 794.169 449.455C794.169 449.455 796.498 444.381 791.84 444.166C787.182 443.95 785.7 450.09 787.605 452.843C789.51 455.596 792.686 453.266 792.686 453.266C792.686 453.266 793.056 459.194 794.141 462.794C794.618 464.377 794.394 470.587 793.993 477.049C793.055 474.716 791.728 472.579 789.869 470.931C781.4 463.429 780.417 455.63 784.084 451.061C787.751 446.492 784.844 438.367 782.063 438.407C779.282 438.446 776.318 435.751 777.165 441.545C778.012 447.339 784.084 447.339 784.084 447.339C784.084 447.339 778.859 451.224 779.282 456.904C779.282 456.904 776.318 454.326 774.518 457.291C771.305 462.583 778.752 465.866 780.004 463.261C780.004 463.261 795.797 474.441 791.986 490.532L792.871 491.839C792.757 493.138 792.686 493.92 792.686 493.92L793.921 493.388L795.326 495.463C795.253 499.485 795.686 502.458 795.686 502.458L799.462 496.884C795.651 480.793 811.443 469.613 811.443 469.613C812.697 472.215 820.144 468.933 816.931 463.641Z" fill="#E0E0E0"/>
<path d="M813.842 532.281H777.667L773.765 492.675H817.745L813.842 532.281Z" fill="#E6E6E6"/>
<path d="M819.676 488.305H771.833V497.045H819.676V488.305Z" fill="#F0F0F0"/>
<path d="M970 577.561C1077.08 577.561 1163.89 572.492 1163.89 566.238C1163.89 559.985 1077.08 554.915 970 554.915C862.918 554.915 776.111 559.985 776.111 566.238C776.111 572.492 862.918 577.561 970 577.561Z" fill="#F5F5F5"/>
<path d="M1130.45 534.717C1130.6 533.693 1134.1 509.545 1127.09 501.208C1125.54 499.363 1123.58 498.398 1121.27 498.341C1107.11 498.01 1105.18 509.377 1105.16 509.493L1106.83 509.75C1106.89 509.343 1108.57 499.723 1121.23 500.029C1123.06 500.073 1124.55 500.815 1125.8 502.294C1132.32 510.055 1128.81 534.224 1128.78 534.467L1130.45 534.717Z" fill="#27A748"/>
<path d="M1131.3 533.616L1132.99 533.563C1132.98 533.341 1132.43 511.313 1143.28 506.762C1153.92 502.306 1158.71 511.468 1158.9 511.861L1160.41 511.102C1160.36 510.992 1154.74 500.126 1142.63 505.205C1130.71 510.204 1131.27 532.663 1131.3 533.616Z" fill="#27A748"/>
<path d="M1131.25 535.347C1131.25 534.996 1131.36 500.157 1138.15 489.967C1144.67 480.184 1155.19 484.79 1155.63 484.992L1156.33 483.454C1156.21 483.399 1144.07 478.039 1136.74 489.03C1129.67 499.643 1129.57 533.892 1129.56 535.345L1131.25 535.347Z" fill="#27A748"/>
<path d="M1119.24 499.178C1119.24 499.178 1125.42 501.456 1123.58 506.834C1121.75 512.212 1102.21 521.064 1102.21 521.064C1102.21 521.064 1094.02 513.563 1101.54 501.364C1109.05 489.165 1119.07 495.329 1119.24 499.178Z" fill="#27A748"/>
<path d="M1138.45 488.133C1138.45 488.133 1134.07 487.662 1134.42 484.99C1134.77 482.318 1151.47 475.44 1161.33 486.562C1161.33 486.562 1155.02 497.4 1145.9 497.542C1136.78 497.682 1138.45 488.133 1138.45 488.133Z" fill="#27A748"/>
<path d="M1142.96 505.984C1142.96 505.984 1139.93 503.539 1143.2 502.346C1146.47 501.153 1162.5 501.492 1162.67 517.374C1162.67 517.374 1143.99 520.477 1141.68 514.428C1139.37 508.379 1142.96 505.984 1142.96 505.984Z" fill="#27A748"/>
<path opacity="0.2" d="M1119.24 499.178C1119.24 499.178 1125.42 501.456 1123.58 506.834C1121.75 512.212 1102.21 521.064 1102.21 521.064C1102.21 521.064 1094.02 513.563 1101.54 501.364C1109.05 489.165 1119.07 495.329 1119.24 499.178Z" fill="black"/>
<path opacity="0.2" d="M1138.45 488.133C1138.45 488.133 1134.07 487.662 1134.42 484.99C1134.77 482.318 1151.47 475.44 1161.33 486.562C1161.33 486.562 1155.02 497.4 1145.9 497.542C1136.78 497.682 1138.45 488.133 1138.45 488.133Z" fill="black"/>
<path opacity="0.2" d="M1142.96 505.984C1142.96 505.984 1139.93 503.539 1143.2 502.346C1146.47 501.153 1162.5 501.492 1162.67 517.374C1162.67 517.374 1143.99 520.477 1141.68 514.428C1139.37 508.379 1142.96 505.984 1142.96 505.984Z" fill="black"/>
<path d="M1115.92 567.072H1144.9L1148.02 535.346H1112.79L1115.92 567.072Z" fill="#27A748"/>
<path opacity="0.5" d="M1115.92 567.072H1144.9L1148.02 535.346H1112.79L1115.92 567.072Z" fill="white"/>
<path d="M1111.25 538.846H1149.57V531.845H1111.25V538.846Z" fill="#27A748"/>
<path opacity="0.2" d="M1111.25 538.846H1149.57V531.845H1111.25V538.846Z" fill="white"/>
<path d="M1083.12 544.33L1054.31 541.498V501.006H1042.89V541.487L1013.96 544.33C1011.09 544.612 1008.9 547.027 1008.9 549.913V554.24H1047.48H1049.6H1088.18V549.913C1088.18 547.027 1085.99 544.612 1083.12 544.33Z" fill="#263238"/>
<path opacity="0.2" d="M1083.12 544.33L1054.31 541.498V501.006H1042.89V541.487L1013.96 544.33C1011.09 544.612 1008.9 547.027 1008.9 549.913V554.24H1047.48H1049.6H1088.18V549.913C1088.18 547.027 1085.99 544.612 1083.12 544.33Z" fill="white"/>
<path d="M1011.95 567.072C1016.07 567.072 1019.42 563.729 1019.42 559.606C1019.42 555.483 1016.07 552.14 1011.95 552.14C1007.83 552.14 1004.48 555.483 1004.48 559.606C1004.48 563.729 1007.83 567.072 1011.95 567.072Z" fill="#263238"/>
<path d="M1085.13 567.072C1089.26 567.072 1092.6 563.729 1092.6 559.606C1092.6 555.483 1089.26 552.14 1085.13 552.14C1081.01 552.14 1077.67 555.483 1077.67 559.606C1077.67 563.729 1081.01 567.072 1085.13 567.072Z" fill="#263238"/>
<path d="M1052.14 509.709H1045.06C1042.77 509.709 1040.92 507.859 1040.92 505.576V473.643H1056.28V505.576C1056.28 507.859 1054.43 509.709 1052.14 509.709Z" fill="#263238"/>
<path opacity="0.3" d="M1052.14 509.709H1045.06C1042.77 509.709 1040.92 507.859 1040.92 505.576V473.643H1056.28V505.576C1056.28 507.859 1054.43 509.709 1052.14 509.709Z" fill="white"/>
<path d="M1075.9 410.35C1075.9 410.35 1078.08 464.347 1063.04 473.643H1080.21C1080.21 473.643 1093.5 455.247 1089.75 410.35H1075.9Z" fill="#263238"/>
<path opacity="0.3" d="M1075.9 410.35C1075.9 410.35 1078.08 464.347 1063.04 473.643H1080.21C1080.21 473.643 1093.5 455.247 1089.75 410.35H1075.9Z" fill="white"/>
<path d="M1014.13 466.092H1081.05C1083.81 466.092 1086.05 468.331 1086.05 471.092V477.781H1009.13V471.092C1009.13 468.33 1011.37 466.092 1014.13 466.092Z" fill="#263238"/>
<path d="M1007.94 471.937H1087.25C1088.36 471.937 1089.26 472.837 1089.26 473.948V475.77C1089.26 476.881 1088.36 477.781 1087.25 477.781H1007.94C1006.83 477.781 1005.93 476.881 1005.93 475.77V473.948C1005.93 472.837 1006.83 471.937 1007.94 471.937Z" fill="#263238"/>
<path opacity="0.6" d="M1007.94 471.937H1087.25C1088.36 471.937 1089.26 472.837 1089.26 473.948V475.77C1089.26 476.881 1088.36 477.781 1087.25 477.781H1007.94C1006.83 477.781 1005.93 476.881 1005.93 475.77V473.948C1005.93 472.837 1006.83 471.937 1007.94 471.937Z" fill="white"/>
<path d="M1093.95 421.321H1066.46C1058.4 421.321 1051.88 414.792 1051.88 406.737V395.985C1051.88 387.93 1058.4 381.401 1066.46 381.401H1093.95C1102.01 381.401 1108.54 387.93 1108.54 395.985V406.737C1108.54 414.792 1102.01 421.321 1093.95 421.321Z" fill="#263238"/>
<path d="M983.051 337.279L977.565 322.809C977.565 322.809 979.918 320.631 978.304 318.422C976.69 316.213 966.564 309.996 964.718 311.089C962.872 312.181 958.774 316.302 960.99 318.588C963.205 320.874 973.015 324.69 973.015 324.69L977.868 343.675L983.051 337.279Z" fill="#E4897B"/>
<path d="M1021.38 364.791C1021.38 364.791 996.413 359.658 993.705 358.433C990.998 357.208 980.945 327.769 980.945 327.769L973.241 331.369C973.241 331.369 979.443 360.91 985.784 367.935C992.126 374.96 1019.17 380.901 1019.17 380.901L1021.38 364.791Z" fill="#27A748"/>
<path opacity="0.2" d="M1019.17 380.897C1019.17 380.897 1019.02 380.864 1018.71 380.791C1017.35 380.484 1013.08 379.478 1008.01 377.995C999.775 375.604 989.405 371.948 985.78 367.939C979.448 360.91 973.238 331.367 973.238 331.367L980.94 327.771C980.94 327.771 990.992 357.21 993.709 358.434C996.416 359.655 1021.38 364.789 1021.38 364.789L1019.17 380.897Z" fill="black"/>
<path d="M981.067 327.191L982.659 330.26L972.759 333.669L973.141 329.918L981.067 327.191Z" fill="#27A748"/>
<path opacity="0.2" d="M1019.36 380.494C1017.98 380.294 1013.65 379.621 1008.47 378.536C1011.42 373.443 1020.06 370.824 1020.06 370.824L1019.36 380.494Z" fill="black"/>
<path d="M1056.58 344.413C1056.58 344.413 1058.05 358.243 1052.93 361.639C1047.8 365.035 1022.6 361.057 1019.74 355.494C1016.88 349.931 1027.64 334.822 1027.64 334.822L1056.58 344.413Z" fill="#263238"/>
<path d="M954.593 526.395L961.169 527.979L964.497 518.901L967.519 510.644L960.029 507.449L957.149 517.47L954.593 526.395Z" fill="#E4897B"/>
<path opacity="0.2" d="M957.149 517.47L964.497 518.901L967.519 510.644L960.029 507.449L957.149 517.47Z" fill="black"/>
<path d="M957.81 512.678L966.93 516.068C966.93 516.068 991.26 455.238 996.26 455.028C1001.26 454.818 1052.17 478.218 1064.93 465.238C1077.69 452.268 1059.24 420.998 1059.24 420.998C1059.24 420.998 1028.55 416.618 1026.24 423.548C1025.79 424.888 1025.3 427.518 1024.94 429.768C1024.59 431.888 1024.35 433.668 1024.35 433.668C1024.35 433.668 1024.34 433.668 1024.33 433.658C1023.38 433.418 992.57 425.468 980.43 433.668C968.1 442.008 957.81 512.678 957.81 512.678Z" fill="#27A748"/>
<path opacity="0.6" d="M957.81 512.678L966.93 516.068C966.93 516.068 991.26 455.238 996.26 455.028C1001.26 454.818 1052.17 478.218 1064.93 465.238C1077.69 452.268 1059.24 420.998 1059.24 420.998C1059.24 420.998 1028.55 416.618 1026.24 423.548C1025.79 424.888 1025.3 427.518 1024.94 429.768C1024.59 431.888 1024.35 433.668 1024.35 433.668C1024.35 433.668 1024.34 433.668 1024.33 433.658C1023.38 433.418 992.57 425.468 980.43 433.668C968.1 442.008 957.81 512.678 957.81 512.678Z" fill="white"/>
<path d="M1010.27 552.344L1016.82 550.665L1015.56 541.266L1014.39 532.644L1006.28 533.371L1008.39 543.417L1010.27 552.344Z" fill="#E4897B"/>
<path opacity="0.2" d="M1008.44 543.619L1015.6 541.445L1014.41 532.734L1006.3 533.416L1008.44 543.619Z" fill="black"/>
<path d="M970.696 512.694L957.413 508.179L956.845 513.621L966.921 517.183L970.696 512.694Z" fill="#27A748"/>
<path d="M1042.89 468.359C1042.89 468.359 1040.81 468.408 1008.62 466.908C1008.62 466.908 1013.43 507.153 1016.06 537.281L1006.43 538.922C1006.43 538.922 983.43 474.409 983.68 464.159C983.93 453.909 995.68 450.909 995.68 450.909C995.68 450.909 1018.61 464.158 1042.89 468.359Z" fill="#27A748"/>
<path opacity="0.6" d="M1042.89 468.359C1042.89 468.359 1040.81 468.408 1008.62 466.908C1008.62 466.908 1013.43 507.153 1016.06 537.281L1006.43 538.922C1006.43 538.922 983.43 474.409 983.68 464.159C983.93 453.909 995.68 450.909 995.68 450.909C995.68 450.909 1018.61 464.158 1042.89 468.359Z" fill="white"/>
<path opacity="0.1" d="M1042.89 468.359C1042.89 468.359 1040.81 468.408 1008.62 466.908C1008.62 466.908 1013.43 507.153 1016.06 537.281L1006.43 538.922C1006.43 538.922 983.43 474.409 983.68 464.159C983.93 453.909 995.68 450.909 995.68 450.909C995.68 450.909 1018.61 464.158 1042.89 468.359Z" fill="black"/>
<path d="M1017.46 534.361L1004.23 535.866L1006.79 541.052L1017.5 539.679L1017.46 534.361Z" fill="#27A748"/>
<path opacity="0.1" d="M1024.35 433.668L1042.3 437.408C1042.3 437.408 1032.38 431.928 1024.94 429.768C1024.59 431.888 1024.35 433.668 1024.35 433.668Z" fill="black"/>
<path d="M1058.5 416.227L1059.24 421.001L1026.24 423.546L1025.36 417.9L1058.5 416.227Z" fill="#263238"/>
<path opacity="0.2" d="M1058.5 416.227L1059.24 421.001L1026.24 423.546L1025.36 417.9L1058.5 416.227Z" fill="black"/>
<path d="M1048.07 424.218L1049.7 424.05L1048.85 415.745L1047.22 415.913L1048.07 424.218Z" fill="#27A748"/>
<path d="M1033.46 423.381L1040.69 422.917L1040.34 417.434L1033.11 417.899L1033.46 423.381Z" fill="white"/>
<path d="M1027.86 425.114L1029.49 424.946L1028.63 416.642L1027 416.81L1027.86 425.114Z" fill="#27A748"/>
<path opacity="0.6" d="M1048.07 424.218L1049.7 424.05L1048.85 415.745L1047.22 415.913L1048.07 424.218Z" fill="white"/>
<path opacity="0.6" d="M1027.86 425.114L1029.49 424.946L1028.63 416.642L1027 416.81L1027.86 425.114Z" fill="white"/>
<path d="M1020.78 364.335C1020.78 364.335 1029.21 366.978 1039.8 366.434C1050.38 365.89 1063.04 371.033 1063.04 371.033L1058.5 416.227L1025.36 417.9C1025.36 417.9 1014.23 380.16 1020.78 364.335Z" fill="#27A748"/>
<path d="M1026.11 338.814C1026.11 338.814 1027.97 316.866 1046.31 324.841C1069.34 334.851 1051.03 361.583 1039.78 356.095C1028.53 350.607 1026.11 338.814 1026.11 338.814Z" fill="#263238"/>
<path opacity="0.2" d="M1031.25 367.66L1031.78 380.061L1035.89 374.227C1035.89 374.227 1034.42 387.943 1035.28 395.411C1035.28 395.411 1036.07 382.019 1037.93 374.227L1042.3 380.061L1048.58 367.736C1048.58 367.736 1038.42 364.089 1031.25 367.66Z" fill="black"/>
<path d="M1036.93 369.967L1046.42 367.287C1040.57 363.264 1043.52 354.269 1043.52 354.269L1034.12 357.573C1034.62 359.132 1034.94 360.457 1035.13 361.588C1036.11 367.45 1033.47 367.918 1033.47 367.918L1036.93 369.967Z" fill="#E4897B"/>
<path opacity="0.2" d="M1034.12 357.573C1034.63 359.132 1034.94 360.457 1035.13 361.588C1039.63 359.785 1043.52 354.269 1043.52 354.269L1034.12 357.573Z" fill="black"/>
<path d="M1040.26 329.449C1031.93 327.607 1028.27 331.47 1025.76 339.912C1022.63 350.462 1023.32 358.603 1034.23 358.617C1049.05 358.635 1054.08 332.508 1040.26 329.449Z" fill="#E4897B"/>
<path d="M1031.24 340.638C1031.24 340.638 1029.61 342.557 1028.06 343.554C1028.06 343.554 1028.52 344.844 1030.04 344.981L1031.24 340.638Z" fill="#DE5753"/>
<path d="M1036.49 341.085C1036.32 341.765 1036.55 342.407 1037.01 342.518C1037.46 342.629 1037.96 342.169 1038.13 341.489C1038.3 340.809 1038.07 340.167 1037.61 340.055C1037.16 339.943 1036.66 340.404 1036.49 341.085Z" fill="#263238"/>
<path d="M1037.79 340.134L1036.46 339.19C1036.46 339.19 1036.89 340.616 1037.79 340.134Z" fill="#263238"/>
<path d="M1028.07 338.863C1027.9 339.543 1028.13 340.185 1028.59 340.297C1029.04 340.409 1029.54 339.948 1029.71 339.268C1029.88 338.588 1029.64 337.946 1029.19 337.835C1028.74 337.722 1028.23 338.183 1028.07 338.863Z" fill="#263238"/>
<path d="M1029.37 337.913L1028.04 336.969C1028.04 336.969 1028.47 338.395 1029.37 337.913Z" fill="#263238"/>
<path d="M1037.84 335.356C1037.84 335.356 1040.25 335.57 1041.17 337.413" stroke="#263238" stroke-width="0.7247" stroke-miterlimit="10" stroke-linecap="round" stroke-linejoin="round"/>
<path d="M1031.87 333.665C1031.87 333.665 1030.52 332.795 1028.4 333.615" stroke="#263238" stroke-width="0.7247" stroke-miterlimit="10" stroke-linecap="round" stroke-linejoin="round"/>
<path d="M1046.25 345.49C1046.25 345.49 1043.87 337.791 1045.63 332.642C1045.63 332.642 1030.63 322.254 1026.11 338.815C1026.11 338.815 1027.78 323.593 1042.17 326.428C1056.52 329.259 1051.85 350.181 1043.08 354.782C1043.08 354.782 1047.71 350.299 1046.25 345.49Z" fill="#263238"/>
<path d="M1044.5 346.946C1044.85 345.618 1046.74 343.656 1049.17 344.48C1051.69 345.332 1051.74 350.899 1045.05 350.752C1044.08 350.731 1043.76 349.716 1044.5 346.946Z" fill="#E4897B"/>
<path d="M1028.55 348.143C1028.85 349.244 1028.98 351.236 1028.98 351.236C1029.17 351.256 1029.35 351.276 1029.53 351.287C1032.02 351.498 1033.24 350.775 1033.84 349.91C1034.17 349.435 1034.31 348.911 1034.36 348.478C1034.43 347.979 1034.36 347.607 1034.36 347.607C1032.98 348.282 1030.65 348.264 1029.4 348.201C1028.88 348.181 1028.55 348.143 1028.55 348.143Z" fill="#263238"/>
<path d="M1029.4 348.201L1029.55 349.11C1031.89 349.303 1033.57 349.125 1034.36 348.478C1034.43 347.979 1034.36 347.607 1034.36 347.607C1032.98 348.282 1030.65 348.263 1029.4 348.201Z" fill="white"/>
<path d="M1029.53 351.286C1032.02 351.497 1033.24 350.774 1033.84 349.909C1032.99 349.87 1031.96 349.917 1031.04 350.221C1030.33 350.452 1029.86 350.86 1029.53 351.286Z" fill="#DE5753"/>
<path d="M1040.29 330.115C1040.29 330.115 1040.61 344.552 1049.27 346.285C1057.93 348.018 1048.47 327.733 1048.47 327.733C1048.47 327.733 1035.57 319.309 1026.97 325.246C1018.37 331.183 1026.11 338.815 1026.11 338.815C1026.11 338.815 1027.92 328.091 1040.29 330.115Z" fill="#263238"/>
<path d="M1040.59 329.161C1040.59 329.161 1037.5 338.287 1043.6 343.078" stroke="#263238" stroke-width="0.5" stroke-miterlimit="10" stroke-linecap="round" stroke-linejoin="round"/>
<path d="M1051.8 349.255C1050.7 352.191 1047.87 353.843 1045.48 352.947C1043.09 352.05 1042.05 348.944 1043.15 346.009C1044.26 343.073 1047.08 341.421 1049.47 342.317C1051.86 343.213 1052.9 346.319 1051.8 349.255Z" fill="#27A748"/>
<path opacity="0.4" d="M1051.8 349.255C1050.7 352.191 1047.87 353.843 1045.48 352.947C1043.09 352.05 1042.05 348.944 1043.15 346.009C1044.26 343.073 1047.08 341.421 1049.47 342.317C1051.86 343.213 1052.9 346.319 1051.8 349.255Z" fill="black"/>
<path d="M1049.04 344.441C1049.04 344.441 1052.63 328.371 1044.58 324.159C1044.58 324.159 1046.26 324.385 1047.3 324.688C1048.34 324.991 1054.77 331.508 1051.52 345.951L1049.04 344.441Z" fill="#27A748"/>
<path opacity="0.2" d="M1049.04 344.441C1049.04 344.441 1052.63 328.371 1044.58 324.159C1044.58 324.159 1046.26 324.385 1047.3 324.688C1048.34 324.991 1054.77 331.508 1051.52 345.951L1049.04 344.441Z" fill="black"/>
<path d="M1033.95 353.638C1033.75 353.612 1033.55 353.582 1033.35 353.548L1033.51 352.562C1040.76 353.742 1046.15 349.907 1046.2 349.867L1046.79 350.674C1046.57 350.839 1041.32 354.608 1033.95 353.638Z" fill="#27A748"/>
<g opacity="0.2">
<path d="M1033.95 353.638C1033.75 353.612 1033.55 353.582 1033.35 353.548L1033.51 352.562C1040.76 353.742 1046.15 349.907 1046.2 349.867L1046.79 350.674C1046.57 350.839 1041.32 354.608 1033.95 353.638Z" fill="black"/>
</g>
<path d="M1051.46 348.853C1050.73 350.794 1048.86 351.886 1047.29 351.294C1045.71 350.701 1045.02 348.648 1045.75 346.707C1046.47 344.766 1048.34 343.674 1049.92 344.266C1051.5 344.859 1052.19 346.912 1051.46 348.853Z" fill="#27A748"/>
<path d="M1033.05 353.966L1032.25 353.86C1031.66 353.782 1031.24 353.235 1031.32 352.639C1031.39 352.043 1031.94 351.624 1032.54 351.702L1033.34 351.808C1033.93 351.886 1034.35 352.433 1034.27 353.029C1034.2 353.625 1033.65 354.044 1033.05 353.966Z" fill="#27A748"/>
<path opacity="0.4" d="M1033.05 353.966L1032.25 353.86C1031.66 353.782 1031.24 353.235 1031.32 352.639C1031.39 352.043 1031.94 351.624 1032.54 351.702L1033.34 351.808C1033.93 351.886 1034.35 352.433 1034.27 353.029C1034.2 353.625 1033.65 354.044 1033.05 353.966Z" fill="black"/>
<path d="M1043.87 363.848L1037.93 369.684L1040.31 376.835L1048.57 367.736L1043.87 363.848Z" fill="#27A748"/>
<path d="M1035.28 365.068L1036.24 369.56L1033.17 375.912L1031.25 367.66L1035.28 365.068Z" fill="#27A748"/>
<path d="M1042.6 368.914L1046.05 356.284C1046.05 356.284 1044.38 353.138 1044.74 352.479C1045.1 351.821 1046.9 343.341 1048.18 342.417C1049.46 341.494 1054.73 343.07 1055.26 343.93C1055.79 344.79 1050.21 356.283 1050.21 356.283L1048.18 369.966L1042.6 368.914Z" fill="#E4897B"/>
<path d="M1063.04 371.033C1072.54 380.752 1053.51 402.77 1042.6 401.832C1031.7 400.894 1042.87 360.969 1042.87 360.969L1049.86 362.118C1049.86 362.118 1047.41 379.396 1048.18 380.752C1048.95 382.107 1059.85 367.766 1063.04 371.033Z" fill="#27A748"/>
<path opacity="0.2" d="M1063.04 371.033C1072.54 380.752 1053.51 402.77 1042.6 401.832C1031.7 400.894 1042.87 360.969 1042.87 360.969L1049.86 362.118C1049.86 362.118 1047.41 379.396 1048.18 380.752C1048.95 382.107 1059.85 367.766 1063.04 371.033Z" fill="black"/>
<path d="M1042.3 359.692L1041.27 362.989L1051 363.848V360.969L1042.3 359.692Z" fill="#27A748"/>
<path opacity="0.6" d="M1027.56 394.824H1023.62C1023.18 394.824 1022.82 394.47 1022.82 394.033V386.594C1022.82 386.157 1023.18 385.803 1023.62 385.803H1027.56C1027.99 385.803 1028.35 386.157 1028.35 386.594V394.033C1028.35 394.47 1027.99 394.824 1027.56 394.824Z" fill="white"/>
<path opacity="0.2" d="M1027.64 386.396H1023.15V392.528H1027.64V386.396Z" fill="black"/>
<path d="M1025.99 383.626H1025V387.24H1025.99V383.626Z" fill="#263238"/>
<path d="M943.705 539.168C944.705 538.708 945.78 538.435 946.879 538.362C946.879 538.362 950.677 536.126 954.441 527.442L958.674 527.417C960.139 527.434 961.439 528.364 961.926 529.746C961.996 529.934 962.036 530.132 962.046 530.332C962.003 531.355 961.895 532.374 961.721 533.383C961.34 536.549 959.246 543.342 959.246 543.342L958.529 543.159L959.833 536.843C960.267 534.697 958.012 536.77 956.966 538.934C955.92 541.098 954.316 543.276 949.641 542.207C944.193 540.932 941.997 540.148 943.705 539.168Z" fill="#27A748"/>
<path d="M955.207 525.166C955.207 525.166 949.922 536.227 946.878 538.361C946.878 538.361 950.958 540.794 955.207 535.379C960.701 528.376 962.045 530.332 962.045 530.332C962.045 530.332 961.812 527.936 961.383 526.763C960.559 524.503 955.207 525.166 955.207 525.166Z" fill="#E4897B"/>
<path d="M1001.93 565.521C1002.79 564.837 1003.77 564.316 1004.82 563.985C1004.82 563.985 1007.98 560.912 1009.57 551.583L1013.68 550.555C1015.11 550.224 1016.59 550.82 1017.39 552.047C1017.5 552.213 1017.59 552.396 1017.65 552.588C1017.85 553.592 1017.98 554.607 1018.05 555.629C1018.43 558.795 1018.01 565.891 1018.01 565.891L1017.27 565.884L1017.04 559.439C1016.95 557.251 1015.25 559.8 1014.75 562.15C1014.25 564.5 1013.21 566.997 1008.41 567.067C1002.82 567.119 1000.5 566.877 1001.93 565.521Z" fill="#27A748"/>
<path d="M1009.78 549.19C1009.78 549.19 1007.27 561.189 1004.82 563.984C1004.82 563.984 1009.36 565.38 1012.2 559.112C1015.88 551.006 1017.65 552.587 1017.65 552.587C1017.65 552.587 1016.85 550.314 1016.16 549.276C1014.82 547.277 1009.78 549.19 1009.78 549.19Z" fill="#E4897B"/>
<path d="M1102.76 332.219H1067.84C1065.05 332.219 1062.78 329.951 1062.78 327.154V312.213C1062.78 309.416 1065.05 307.148 1067.84 307.148H1102.76C1105.56 307.148 1107.83 309.416 1107.83 312.213V327.154C1107.83 329.951 1105.56 332.219 1102.76 332.219Z" fill="#27A748"/>
<path d="M1074.85 329.361L1064.33 343.659L1081.3 330.32L1074.85 329.361Z" fill="#27A748"/>
<path d="M1075.24 319.683C1075.24 320.498 1074.58 321.158 1073.77 321.158C1072.95 321.158 1072.29 320.497 1072.29 319.683C1072.29 318.868 1072.95 318.208 1073.77 318.208C1074.58 318.208 1075.24 318.868 1075.24 319.683Z" fill="white"/>
<path d="M1082.93 319.683C1082.93 320.498 1082.27 321.158 1081.46 321.158C1080.64 321.158 1079.98 320.497 1079.98 319.683C1079.98 318.868 1080.64 318.208 1081.46 318.208C1082.27 318.208 1082.93 318.868 1082.93 319.683Z" fill="white"/>
<path d="M1090.62 319.683C1090.62 320.498 1089.96 321.158 1089.15 321.158C1088.33 321.158 1087.67 320.497 1087.67 319.683C1087.67 318.868 1088.33 318.208 1089.15 318.208C1089.96 318.208 1090.62 318.868 1090.62 319.683Z" fill="white"/>
<path d="M1098.31 319.683C1098.31 320.498 1097.65 321.158 1096.84 321.158C1096.02 321.158 1095.36 320.497 1095.36 319.683C1095.36 318.868 1096.02 318.208 1096.84 318.208C1097.65 318.208 1098.31 318.868 1098.31 319.683Z" fill="white"/>
<path d="M962.431 312.505L937.531 299.094C936.858 298.731 936.606 297.892 936.969 297.218L944.91 282.473C945.273 281.8 946.112 281.548 946.786 281.91L971.686 295.321C972.359 295.684 972.611 296.523 972.249 297.197L964.308 311.942C963.944 312.615 963.104 312.867 962.431 312.505Z" fill="#27A748"/>
<path opacity="0.7" d="M962.431 312.505L937.531 299.094C936.858 298.731 936.606 297.892 936.969 297.218L944.91 282.473C945.273 281.8 946.112 281.548 946.786 281.91L971.686 295.321C972.359 295.684 972.611 296.523 972.249 297.197L964.308 311.942C963.944 312.615 963.104 312.867 962.431 312.505Z" fill="white"/>
<path opacity="0.2" d="M944.253 283.692L952.043 298.239C952.65 299.372 953.878 300.028 955.157 299.901L971.371 298.298L954.866 300.728C953.386 300.946 951.939 300.166 951.306 298.811L944.253 283.692Z" fill="black"/>
<path d="M925.342 280.982C925.607 275.418 929.725 264.208 934.736 260.78C939.747 257.351 936.45 262.099 936.45 262.099C936.45 262.099 941.197 257.484 943.703 257.616C946.209 257.748 943.703 260.649 943.703 260.649C943.703 260.649 948.846 257.479 951.22 257.613C953.594 257.748 951.22 260.517 951.22 260.517C951.22 260.517 955.44 257.484 957.154 258.935C958.868 260.386 935.264 275.946 932.627 282.276C929.989 288.604 925.074 286.613 925.342 280.982Z" fill="#27A748"/>
<path opacity="0.4" d="M925.342 280.982C925.607 275.418 929.725 264.208 934.736 260.78C939.747 257.351 936.45 262.099 936.45 262.099C936.45 262.099 941.197 257.484 943.703 257.616C946.209 257.748 943.703 260.649 943.703 260.649C943.703 260.649 948.846 257.479 951.22 257.613C953.594 257.748 951.22 260.517 951.22 260.517C951.22 260.517 955.44 257.484 957.154 258.935C958.868 260.386 935.264 275.946 932.627 282.276C929.989 288.604 925.074 286.613 925.342 280.982Z" fill="white"/>
<path d="M945.615 280.161L948.768 282.18C948.995 282.325 948.877 282.677 948.608 282.656L945.296 282.398L945.581 284.94C945.612 285.216 945.269 285.368 945.085 285.16L943.175 282.997L945.615 280.161Z" fill="#27A748"/>
<path opacity="0.3" d="M945.615 280.161L948.768 282.18C948.995 282.325 948.877 282.677 948.608 282.656L945.296 282.398L945.581 284.94C945.612 285.216 945.269 285.368 945.085 285.16L943.175 282.997L945.615 280.161Z" fill="white"/>
<path d="M901.374 267.639C901.374 267.639 905.726 264.604 912.319 266.582C912.319 266.582 914.215 275.285 919.399 278.186C922.246 279.779 929.221 279.642 934.737 277.856C941.288 275.735 944.495 275.735 945.682 278.186C946.806 280.507 945.55 283.197 940.539 284.384C935.528 285.571 931.572 294.274 922.473 294.406C913.374 294.538 908.585 285.415 910.869 277.395C910.869 277.395 908.099 271.417 901.374 267.639Z" fill="#27A748"/>
<path opacity="0.5" d="M901.374 267.639C901.374 267.639 905.726 264.604 912.319 266.582C912.319 266.582 914.215 275.285 919.399 278.186C922.246 279.779 929.221 279.642 934.737 277.856C941.288 275.735 944.495 275.735 945.682 278.186C946.806 280.507 945.55 283.197 940.539 284.384C935.528 285.571 931.572 294.274 922.473 294.406C913.374 294.538 908.585 285.415 910.869 277.395C910.869 277.395 908.099 271.417 901.374 267.639Z" fill="white"/>
<path d="M943.176 279.835C943.176 280.081 942.977 280.28 942.731 280.28C942.485 280.28 942.286 280.081 942.286 279.835C942.286 279.589 942.485 279.39 942.731 279.39C942.977 279.39 943.176 279.589 943.176 279.835Z" fill="#263238"/>
<path d="M920.361 287.159C914.987 288.624 903.054 288.167 898.246 284.459C893.438 280.751 898.971 282.421 898.971 282.421C898.971 282.421 893.116 279.33 892.468 276.906C891.82 274.482 895.353 275.97 895.353 275.97C895.353 275.97 890.75 272.057 890.145 269.758C889.54 267.459 892.907 268.862 892.907 268.862C892.907 268.862 888.72 265.784 889.57 263.706C890.42 261.628 912.507 279.277 919.342 279.831C926.177 280.387 925.8 285.676 920.361 287.159Z" fill="#27A748"/>
<path opacity="0.4" d="M920.361 287.159C914.987 288.624 903.054 288.167 898.246 284.459C893.438 280.751 898.971 282.421 898.971 282.421C898.971 282.421 893.116 279.33 892.468 276.906C891.82 274.482 895.353 275.97 895.353 275.97C895.353 275.97 890.75 272.057 890.145 269.758C889.54 267.459 892.907 268.862 892.907 268.862C892.907 268.862 888.72 265.784 889.57 263.706C890.42 261.628 912.507 279.277 919.342 279.831C926.177 280.387 925.8 285.676 920.361 287.159Z" fill="white"/>
<path d="M885.163 262.459C884.223 262.124 883.272 261.812 882.313 261.521" stroke="#27A748" stroke-width="0.75" stroke-linecap="round" stroke-linejoin="round"/>
<path d="M876.467 260.03C872.962 259.296 869.399 258.82 865.86 258.574C856.137 257.897 840.895 256.934 834.939 266.623C829.512 275.452 838.849 290.516 842.163 298.713C846.222 308.752 851.048 321.166 846.252 331.794C836.396 353.633 794.206 342.293 779.974 322.179" stroke="#27A748" stroke-width="0.75" stroke-linecap="round" stroke-linejoin="round" stroke-dasharray="6.03 6.03"/>
<path d="M778.356 319.639C777.855 318.757 777.409 317.861 777.022 316.953" stroke="#27A748" stroke-width="0.75" stroke-linecap="round" stroke-linejoin="round"/>
<path d="M899.808 399.042H861.85V406.827H899.808V399.042Z" fill="white"/>
<path opacity="0.1" d="M899.808 399.042H861.85V406.827H899.808V399.042Z" fill="black"/>
<path opacity="0.1" d="M877.837 399.042H861.85V406.827H877.837V399.042Z" fill="black"/>
<path opacity="0.1" d="M861.85 400.163H895.639L861.85 401.119V400.163Z" fill="black"/>
<path opacity="0.1" d="M899.808 401.515L870.518 402.24H899.808V401.515Z" fill="black"/>
<path opacity="0.1" d="M863.397 403.691L877.837 403.097L899.067 403.691L877.837 404.02L863.397 403.691Z" fill="black"/>
<path opacity="0.1" d="M861.85 405.339H886.87L861.85 405.932V405.339Z" fill="black"/>
<path opacity="0.1" d="M899.754 405.932L883.045 406.242H899.808L899.754 405.932Z" fill="black"/>
<path d="M894.525 391.257H856.567V399.042H894.525V391.257Z" fill="white"/>
<path opacity="0.1" d="M894.525 391.257H856.567V399.042H894.525V391.257Z" fill="black"/>
<path opacity="0.1" d="M872.554 391.257H856.567V399.042H872.554V391.257Z" fill="black"/>
<path opacity="0.1" d="M856.567 392.378H890.356L856.567 393.334V392.378Z" fill="black"/>
<path opacity="0.1" d="M894.526 393.73L865.235 394.455H894.526V393.73Z" fill="black"/>
<path opacity="0.1" d="M858.115 395.906L872.554 395.312L893.785 395.906L872.554 396.235L858.115 395.906Z" fill="black"/>
<path opacity="0.1" d="M856.567 397.554H881.587L856.567 398.147V397.554Z" fill="black"/>
<path opacity="0.1" d="M894.471 398.147L877.763 398.457H894.526L894.471 398.147Z" fill="black"/>
<path d="M898.859 383.472H860.901V391.257H898.859V383.472Z" fill="white"/>
<path opacity="0.1" d="M898.859 383.472H860.901V391.257H898.859V383.472Z" fill="black"/>
<path opacity="0.1" d="M876.888 383.472H860.901V391.257H876.888V383.472Z" fill="black"/>
<path opacity="0.1" d="M860.901 384.593H894.69L860.901 385.549V384.593Z" fill="black"/>
<path opacity="0.1" d="M898.86 385.945L869.569 386.67H898.86V385.945Z" fill="black"/>
<path opacity="0.1" d="M862.449 388.12L876.888 387.527L898.119 388.12L876.888 388.45L862.449 388.12Z" fill="black"/>
<path opacity="0.1" d="M860.901 389.769H885.921L860.901 390.362V389.769Z" fill="black"/>
<path opacity="0.1" d="M898.805 390.362L882.097 390.672H898.86L898.805 390.362Z" fill="black"/>
<path d="M924.146 406.664L925.133 402.934H965.685L984.359 404.799L985.069 406.664H924.146Z" fill="#263238"/>
<path opacity="0.4" d="M965.685 402.934V406.664H924.146L925.133 402.934H965.685Z" fill="black"/>
<path d="M957.538 385.079C957.718 387.049 956.278 388.649 954.318 388.649H892.198C890.228 388.649 888.488 387.049 888.308 385.079L884.618 345.309C884.578 344.899 884.608 344.509 884.698 344.149C885.048 342.749 886.278 341.739 887.838 341.739H949.958C951.928 341.739 953.668 343.339 953.848 345.309L957.538 385.079Z" fill="#263238"/>
<path opacity="0.4" d="M954.099 388.649H892.199C890.229 388.649 888.489 387.049 888.309 385.079L884.619 345.309C884.579 344.899 884.609 344.509 884.699 344.149H946.599C948.559 344.149 950.299 345.749 950.489 347.719L954.179 387.489C954.219 387.899 954.188 388.289 954.099 388.649Z" fill="black"/>
<path d="M911.421 364.257H924.272L920.846 401.05L941.168 404.101V406.664H898.368V404.101L907.136 401.05L911.421 364.257Z" fill="#263238"/>
<path opacity="0.1" d="M924.272 364.257L914.751 406.079L907.136 405.853L911.421 364.257H924.272Z" fill="white"/>
<path d="M924.213 567.072H918.087L907.08 413.825H915.208L924.213 567.072Z" fill="#263238"/>
<path opacity="0.4" d="M924.217 567.072H918.087L907.617 421.437L907.077 414.072H915.207L915.647 421.437L924.217 567.072Z" fill="white"/>
<path opacity="0.2" d="M915.647 421.072H907.617L907.077 414.072H915.207L915.647 421.072Z" fill="black"/>
<path d="M969.172 567.072H963.046L962.046 413.825H970.173L969.172 567.072Z" fill="#263238"/>
<path opacity="0.5" d="M970.177 414.072L970.017 438.797L969.177 567.072H963.047L962.207 438.797L962.047 414.072H970.177Z" fill="white"/>
<path opacity="0.2" d="M970.177 414.072L970.017 439.072H962.207L962.047 414.072H970.177Z" fill="black"/>
<path d="M1034.21 567.072H1028.09L1017.08 413.825H1025.21L1034.21 567.072Z" fill="#263238"/>
<path opacity="0.5" d="M1034.22 567.072H1028.09L1017.62 421.437L1017.08 414.072H1025.21L1025.65 421.437L1034.22 567.072Z" fill="white"/>
<path opacity="0.2" d="M1025.65 421.072H1017.62L1017.08 414.072H1025.21L1025.65 421.072Z" fill="black"/>
<path d="M854.132 567.072H848.005L857.011 413.825H865.138L854.132 567.072Z" fill="#263238"/>
<path opacity="0.5" d="M865.137 414.072L864.597 421.437L854.127 567.072H848.007L856.567 421.437L857.007 414.072H865.137Z" fill="white"/>
<path opacity="0.2" d="M857.007 414.072H865.137L864.597 421.072H856.567L857.007 414.072Z" fill="black"/>
<path d="M1029.49 417.663H852.731C851.537 417.663 850.569 416.695 850.569 415.501V409.987H1031.65V415.5C1031.65 416.695 1030.68 417.663 1029.49 417.663Z" fill="#27A748"/>
<path opacity="0.6" d="M1029.49 417.663H852.731C851.537 417.663 850.569 416.695 850.569 415.501V409.987H1031.65V415.5C1031.65 416.695 1030.68 417.663 1029.49 417.663Z" fill="white"/>
<path opacity="0.2" d="M1031.65 409.987H850.569V413.825H1031.65V409.987Z" fill="black"/>
<path d="M1035.45 410.988H846.772C845.578 410.988 844.61 410.02 844.61 408.826C844.61 407.632 845.578 406.664 846.772 406.664H1035.45C1036.64 406.664 1037.61 407.632 1037.61 408.826C1037.61 410.02 1036.64 410.988 1035.45 410.988Z" fill="#27A748"/>
<path opacity="0.6" d="M1035.45 410.988H846.772C845.578 410.988 844.61 410.02 844.61 408.826C844.61 407.632 845.578 406.664 846.772 406.664H1035.45C1036.64 406.664 1037.61 407.632 1037.61 408.826C1037.61 410.02 1036.64 410.988 1035.45 410.988Z" fill="white"/>
<path d="M990.806 400.003L993.13 396.524C993.593 395.83 994.372 395.414 995.207 395.414H998.15C998.395 395.414 998.64 395.45 998.874 395.521L1009.36 398.7C1009.96 398.881 1010.47 399.278 1010.78 399.813L1012.29 402.343L990.806 400.003Z" fill="#27A748"/>
<path opacity="0.2" d="M1012.29 402.344L997.019 400.684L990.809 400.004L993.129 396.524C993.589 395.834 994.369 395.414 995.209 395.414H998.149C998.399 395.414 998.639 395.454 998.879 395.524L999.109 395.594L1009.36 398.704C1009.96 398.884 1010.47 399.274 1010.79 399.814L1012.29 402.344Z" fill="black"/>
<path opacity="0.2" d="M1012.29 402.344L997.019 400.684L999.109 395.594L1009.36 398.704C1009.96 398.884 1010.47 399.274 1010.79 399.814L1012.29 402.344Z" fill="black"/>
<path d="M1019.55 406.333V406.663H1006.24H987.128L988.328 401.973C988.798 400.213 990.398 398.983 992.218 398.983H1006.6C1007.08 398.983 1007.55 399.063 1008 399.233L1009.8 399.903L1016.94 402.563C1018.51 403.154 1019.55 404.654 1019.55 406.333Z" fill="#27A748"/>
<path opacity="0.2" d="M1019.55 406.333V406.663H1006.24L1006.95 401.593C1007.14 400.253 1008.53 399.433 1009.8 399.903L1016.94 402.563C1018.51 403.154 1019.55 404.654 1019.55 406.333Z" fill="black"/>
<path d="M1008.31 403.217L1012.55 390.509C1012.73 389.96 1013.36 389.705 1013.87 389.97C1014.26 390.172 1014.46 390.62 1014.35 391.046L1010.78 404.613C1010.78 404.613 1008.41 405.573 1008.31 403.217Z" fill="#263238"/>
<path opacity="0.2" d="M990.806 405.608H988.927L989.289 403.762H991.168L990.806 405.608Z" fill="black"/>
<path opacity="0.2" d="M993.608 405.536H991.729L992.091 403.69H993.971L993.608 405.536Z" fill="black"/>
</svg>
