<svg width="150" height="150" viewBox="0 0 150 150" fill="none" xmlns="http://www.w3.org/2000/svg">
<path d="M99.6875 139.125L77.5 116.938L86.25 108.188L99.5313 121.469L126.094 94.9063L134.844 103.813L99.6875 139.125ZM42.5 104.75L33.75 96L43.75 86L33.75 76L42.5 67.25L52.5 77.25L62.5 67.25L71.25 76L61.25 86L71.25 96L62.5 104.75L52.5 94.75L42.5 104.75ZM27.5 136C24.0625 136 21.1198 134.776 18.6719 132.328C16.224 129.88 15 126.938 15 123.5V36C15 32.5625 16.224 29.6198 18.6719 27.1719C21.1198 24.724 24.0625 23.5 27.5 23.5H33.75V11H46.25V23.5H96.25V11H108.75V23.5H115C118.438 23.5 121.38 24.724 123.828 27.1719C126.276 29.6198 127.5 32.5625 127.5 36V75.6875L115 88.3438V61H27.5V123.5H66.5625L78.9063 136H27.5ZM27.5 48.5H115V36H27.5V48.5Z" fill="#6862A2"/>
</svg>
