<svg width="150" height="150" viewBox="0 0 150 150" fill="none" xmlns="http://www.w3.org/2000/svg">
<g clip-path="url(#clip0_503_182)">
<mask id="mask0_503_182" style="mask-type:alpha" maskUnits="userSpaceOnUse" x="0" y="0" width="150" height="150">
<rect width="150" height="150" fill="#D9D9D9"/>
</mask>
<g mask="url(#mask0_503_182)">
<path d="M25.0001 131.25C21.5626 131.25 18.6199 130.026 16.1719 127.578C13.724 125.13 12.5001 122.188 12.5001 118.75V50.0001C12.5001 46.5626 13.724 43.6199 16.1719 41.1719C18.6199 38.724 21.5626 37.5001 25.0001 37.5001H50.0001V25.0001C50.0001 21.5626 51.224 18.6199 53.6719 16.1719C56.1199 13.724 59.0626 12.5001 62.5001 12.5001H87.5001C90.9376 12.5001 93.8803 13.724 96.3282 16.1719C98.7761 18.6199 100 21.5626 100 25.0001V37.5001H125C128.438 37.5001 131.38 38.724 133.828 41.1719C136.276 43.6199 137.5 46.5626 137.5 50.0001V76.7188C135.625 75.3646 133.646 74.1928 131.563 73.2032C129.479 72.2136 127.292 71.3542 125 70.6251V50.0001H25.0001V118.75H69.2188C69.5313 120.938 70.0001 123.073 70.6251 125.156C71.2501 127.24 72.0313 129.271 72.9688 131.25H25.0001ZM62.5001 37.5001H87.5001V25.0001H62.5001V37.5001ZM112.5 143.75C103.854 143.75 96.4844 140.703 90.3907 134.609C84.2969 128.516 81.2501 121.146 81.2501 112.5C81.2501 103.854 84.2969 96.4844 90.3907 90.3907C96.4844 84.2969 103.854 81.2501 112.5 81.2501C121.146 81.2501 128.516 84.2969 134.609 90.3907C140.703 96.4844 143.75 103.854 143.75 112.5C143.75 121.146 140.703 128.516 134.609 134.609C128.516 140.703 121.146 143.75 112.5 143.75ZM115.625 111.25V93.7501H109.375V113.75L122.813 127.188L127.188 122.813L115.625 111.25Z" fill="#C91B52"/>
</g>
</g>
<defs>
<clipPath id="clip0_503_182">
<rect width="150" height="150" fill="white"/>
</clipPath>
</defs>
</svg>
