<svg width="150" height="150" viewBox="0 0 150 150" fill="none" xmlns="http://www.w3.org/2000/svg">
<g clip-path="url(#clip0_503_183)">
<mask id="mask0_503_183" style="mask-type:alpha" maskUnits="userSpaceOnUse" x="0" y="0" width="150" height="150">
<rect width="150" height="150" fill="#D9D9D9"/>
</mask>
<g mask="url(#mask0_503_183)">
<path d="M100 68.75C101.771 68.75 103.255 68.151 104.453 66.9531C105.651 65.7552 106.25 64.2708 106.25 62.5C106.25 60.7292 105.651 59.2448 104.453 58.0469C103.255 56.849 101.771 56.25 100 56.25C98.2292 56.25 96.7448 56.849 95.5469 58.0469C94.349 59.2448 93.75 60.7292 93.75 62.5C93.75 64.2708 94.349 65.7552 95.5469 66.9531C96.7448 68.151 98.2292 68.75 100 68.75ZM50 56.25H81.25V43.75H50V56.25ZM28.125 131.25C24.5833 119.375 21.0938 107.526 17.6562 95.7031C14.2187 83.8802 12.5 71.7708 12.5 59.375C12.5 49.7917 15.8333 41.6667 22.5 35C29.1667 28.3333 37.2917 25 46.875 25H78.125C81.1458 21.0417 84.8177 17.9688 89.1406 15.7813C93.4635 13.5938 98.125 12.5 103.125 12.5C105.729 12.5 107.943 13.4115 109.766 15.2344C111.589 17.0573 112.5 19.2708 112.5 21.875C112.5 22.5 112.422 23.125 112.266 23.75C112.109 24.375 111.927 24.9479 111.719 25.4688C111.302 26.6146 110.911 27.7865 110.547 28.9844C110.182 30.1823 109.896 31.4063 109.688 32.6563L123.906 46.875H137.5V90.4688L119.844 96.25L109.375 131.25H75V118.75H62.5V131.25H28.125ZM37.5 118.75H50V106.25H87.5V118.75H100L109.688 86.5625L125 81.4063V59.375H118.75L96.875 37.5C96.875 35.4167 97.0052 33.4115 97.2656 31.4844C97.526 29.5573 97.9167 27.6042 98.4375 25.625C95.4167 26.4583 92.7604 27.8906 90.4688 29.9219C88.1771 31.9531 86.5104 34.4792 85.4688 37.5H46.875C40.8333 37.5 35.6771 39.6354 31.4063 43.9063C27.1354 48.1771 25 53.3333 25 59.375C25 69.5833 26.4062 79.5573 29.2187 89.2969C32.0312 99.0365 34.7917 108.854 37.5 118.75Z" fill="#FBB012"/>
</g>
</g>
<defs>
<clipPath id="clip0_503_183">
<rect width="150" height="150" fill="white"/>
</clipPath>
</defs>
</svg>
