<svg width="150" height="150" viewBox="0 0 150 150" fill="none" xmlns="http://www.w3.org/2000/svg">
<g clip-path="url(#clip0_503_187)">
<mask id="mask0_503_187" style="mask-type:alpha" maskUnits="userSpaceOnUse" x="0" y="0" width="150" height="150">
<rect width="150" height="150" fill="#D9D9D9"/>
</mask>
<g mask="url(#mask0_503_187)">
<path d="M68.75 75C61.875 75 55.9896 72.5521 51.0938 67.6563C46.1979 62.7604 43.75 56.875 43.75 50C43.75 43.125 46.1979 37.2396 51.0938 32.3438C55.9896 27.4479 61.875 25 68.75 25C75.625 25 81.5104 27.4479 86.4062 32.3438C91.3021 37.2396 93.75 43.125 93.75 50C93.75 56.875 91.3021 62.7604 86.4062 67.6563C81.5104 72.5521 75.625 75 68.75 75ZM68.75 62.5C72.1875 62.5 75.1302 61.276 77.5781 58.8281C80.026 56.3802 81.25 53.4375 81.25 50C81.25 46.5625 80.026 43.6198 77.5781 41.1719C75.1302 38.724 72.1875 37.5 68.75 37.5C65.3125 37.5 62.3698 38.724 59.9219 41.1719C57.474 43.6198 56.25 46.5625 56.25 50C56.25 53.4375 57.474 56.3802 59.9219 58.8281C62.3698 61.276 65.3125 62.5 68.75 62.5ZM138.125 146.875L118.125 126.875C115.938 128.125 113.594 129.167 111.094 130C108.594 130.833 105.938 131.25 103.125 131.25C95.3125 131.25 88.6719 128.516 83.2031 123.047C77.7344 117.578 75 110.938 75 103.125C75 95.3125 77.7344 88.6719 83.2031 83.2031C88.6719 77.7344 95.3125 75 103.125 75C110.938 75 117.578 77.7344 123.047 83.2031C128.516 88.6719 131.25 95.3125 131.25 103.125C131.25 105.938 130.833 108.594 130 111.094C129.167 113.594 128.125 115.938 126.875 118.125L146.875 138.125L138.125 146.875ZM103.125 118.75C107.5 118.75 111.198 117.24 114.219 114.219C117.24 111.198 118.75 107.5 118.75 103.125C118.75 98.75 117.24 95.0521 114.219 92.0313C111.198 89.0104 107.5 87.5 103.125 87.5C98.75 87.5 95.0521 89.0104 92.0313 92.0313C89.0104 95.0521 87.5 98.75 87.5 103.125C87.5 107.5 89.0104 111.198 92.0313 114.219C95.0521 117.24 98.75 118.75 103.125 118.75ZM18.75 125V107.656C18.75 104.115 19.6354 100.833 21.4063 97.8125C23.1771 94.7917 25.625 92.5 28.75 90.9375C34.0625 88.2292 40.0521 85.9375 46.7187 84.0625C53.3854 82.1875 60.7813 81.25 68.9063 81.25C67.6563 83.125 66.5885 85.1302 65.7031 87.2656C64.8177 89.401 64.1146 91.6146 63.5938 93.9063C57.3438 94.4271 51.7708 95.4948 46.875 97.1094C41.9792 98.724 37.8646 100.417 34.5313 102.188C33.4896 102.708 32.6823 103.464 32.1094 104.453C31.5365 105.443 31.25 106.51 31.25 107.656V112.5H63.5938C64.1146 114.792 64.8177 116.979 65.7031 119.063C66.5885 121.146 67.6563 123.125 68.9063 125H18.75Z" fill="#83C544"/>
</g>
</g>
<defs>
<clipPath id="clip0_503_187">
<rect width="150" height="150" fill="white"/>
</clipPath>
</defs>
</svg>
